<?xml version="1.0" encoding="UTF-8"?>
<!-- Generator: visioncortex VTracer 0.6.4 -->
<svg version="1.1" xmlns="http://www.w3.org/2000/svg" width="800" height="1000">
<path d="M0 0 C264 0 528 0 800 0 C800 330 800 660 800 1000 C536 1000 272 1000 0 1000 C0 670 0 340 0 0 Z " fill="#DFDFDF" transform="translate(0,0)"/>
<path d="M0 0 C7.14946528 6.59950641 12.84811971 15.81086421 13.64453125 25.66015625 C14.86952867 57.98283456 -7.01332988 85.04382973 -24.23828125 110.69189453 C-26.96653503 114.76482037 -29.63112866 118.87232305 -32.2265625 123.03125 C-32.86722656 124.05605469 -33.50789062 125.08085937 -34.16796875 126.13671875 C-35.99299357 129.32658172 -35.99299357 129.32658172 -36.6640625 132.84375 C-35.47187965 134.37753143 -35.47187965 134.37753143 -33.6640625 135.71875 C-25.85511243 143.01127651 -21.29141956 154.28939003 -20.6640625 164.84375 C-20.48639756 171.84456229 -20.53731742 178.84254676 -20.6640625 185.84375 C-6.46063132 191.37067152 6.99782762 195.13893557 22.10546875 197.4140625 C24.3359375 197.84375 24.3359375 197.84375 25.3359375 198.84375 C25.37657582 200.50992115 25.3786585 202.17763095 25.3359375 203.84375 C15.70408291 208.65967729 -0.31192638 203.06579638 -10.0847168 199.89428711 C-24.44222093 194.94697889 -37.50509622 188.42185637 -47.6640625 176.84375 C-48.98828125 174.01171875 -48.98828125 174.01171875 -49.6640625 171.84375 C-50.7778125 171.885 -51.8915625 171.92625 -53.0390625 171.96875 C-56.6640625 171.84375 -56.6640625 171.84375 -58.6640625 169.84375 C-58.5390625 166.34375 -58.5390625 166.34375 -57.6640625 162.84375 C-55.609375 161.625 -55.609375 161.625 -53.6640625 160.84375 C-53.7671875 159.709375 -53.8703125 158.575 -53.9765625 157.40625 C-53.88237068 137.37478912 -41.04411513 118.90672926 -30.19433594 103.09179688 C-22.60755153 91.94643777 -15.39385292 80.5266179 -8.6640625 68.84375 C-8.27492676 68.16940918 -7.88579102 67.49506836 -7.48486328 66.80029297 C-6.31945348 64.76118389 -5.17558698 62.71157588 -4.0390625 60.65625 C-3.50599487 59.72014893 -3.50599487 59.72014893 -2.9621582 58.76513672 C-1.10726079 55.5065215 -1.10726079 55.5065215 -0.96508789 51.87670898 C-1.66345896 49.8455054 -2.48717193 48.05834215 -3.51171875 46.171875 C-3.86943359 45.50800781 -4.22714844 44.84414063 -4.59570312 44.16015625 C-4.96888672 43.47824219 -5.34207031 42.79632813 -5.7265625 42.09375 C-6.10361328 41.39636719 -6.48066406 40.69898438 -6.86914062 39.98046875 C-7.79679638 38.26606698 -8.72989704 36.55461339 -9.6640625 34.84375 C-10.45039063 34.86566406 -11.23671875 34.88757813 -12.046875 34.91015625 C-14.6640625 34.84375 -14.6640625 34.84375 -16.5390625 33.78125 C-18.34343011 30.67372801 -17.47584188 28.21575667 -16.6640625 24.84375 C-16.0040625 24.51375 -15.3440625 24.18375 -14.6640625 23.84375 C-14.82777344 22.87308594 -14.99148438 21.90242188 -15.16015625 20.90234375 C-15.78035091 16.56098112 -15.77532667 12.28377229 -15.7265625 7.90625 C-15.72205078 7.12701172 -15.71753906 6.34777344 -15.71289062 5.54492188 C-15.70123158 3.64449732 -15.68330127 1.74411294 -15.6640625 -0.15625 C-47.34380917 -17.91888253 -84.80499974 -17.08815732 -118.92724609 -7.57324219 C-126.45785795 -5.36053374 -133.5918688 -2.55959236 -140.6640625 0.84375 C-140.68984375 1.84792969 -140.715625 2.85210937 -140.7421875 3.88671875 C-141.11682883 13.95257707 -141.92113589 24.22936008 -147.6640625 32.84375 C-147.61452629 35.04164585 -147.61452629 35.04164585 -147.1640625 37.34375 C-146.44184028 41.51041667 -146.44184028 41.51041667 -148.6640625 44.84375 C-150.28634766 45.00423828 -150.28634766 45.00423828 -151.94140625 45.16796875 C-156.5962021 46.01296317 -158.39366649 48.13280959 -161.2265625 51.65625 C-164.71835912 55.86978624 -167.89502391 59.08131951 -172.6640625 61.84375 C-173.3240625 61.84375 -173.9840625 61.84375 -174.6640625 61.84375 C-169.03717517 81.72295062 -157.17719552 98.48955099 -143.81591797 113.96801758 C-129.20228126 130.94724658 -115.44066161 149.41788844 -116.6640625 172.84375 C-115.3440625 173.17375 -114.0240625 173.50375 -112.6640625 173.84375 C-112.3340625 175.82375 -112.0040625 177.80375 -111.6640625 179.84375 C-116.2890625 183.84375 -116.2890625 183.84375 -119.6640625 183.84375 C-119.9734375 185.08125 -119.9734375 185.08125 -120.2890625 186.34375 C-125.34201817 199.20581897 -137.38000466 207.2883801 -149.47216797 212.91210938 C-156.31566283 215.82086148 -163.50280803 217.87614162 -170.6640625 219.84375 C-171.33324707 220.03227539 -172.00243164 220.22080078 -172.69189453 220.41503906 C-181.28677946 222.72144999 -189.80281816 223.00593005 -198.6640625 222.96875 C-200.09298828 222.97455078 -200.09298828 222.97455078 -201.55078125 222.98046875 C-202.45441406 222.97917969 -203.35804688 222.97789062 -204.2890625 222.9765625 C-205.10632813 222.97543457 -205.92359375 222.97430664 -206.765625 222.97314453 C-208.6640625 222.84375 -208.6640625 222.84375 -209.6640625 221.84375 C-209.70470082 220.17757885 -209.7067835 218.50986905 -209.6640625 216.84375 C-206.12466546 216.01619314 -203.03704726 215.81347922 -199.4140625 215.96875 C-182.73541325 216.05010926 -164.50865665 211.32168648 -149.6640625 203.84375 C-148.6740625 203.84375 -147.6840625 203.84375 -146.6640625 203.84375 C-147.1384375 202.709375 -147.6128125 201.575 -148.1015625 200.40625 C-149.78616699 195.86894263 -150.40377168 191.65913026 -150.6640625 186.84375 C-150.72851562 185.96074219 -150.79296875 185.07773437 -150.859375 184.16796875 C-151.49590794 168.48804061 -147.00455243 157.26512738 -136.6640625 145.84375 C-136.0040625 145.18375 -135.3440625 144.52375 -134.6640625 143.84375 C-135.42925136 135.70492308 -144.79840519 127.42341735 -149.8515625 121.28125 C-168.99622474 97.90114185 -187.25478019 73.54747683 -184.6640625 41.84375 C-181.55861339 24.5392896 -169.2620709 10.3589801 -155.6640625 -0.15625 C-138.78461824 -11.61915617 -120.5085825 -17.30478561 -100.6640625 -21.15625 C-99.50390625 -21.38441406 -98.34375 -21.61257813 -97.1484375 -21.84765625 C-64.27795358 -27.4169444 -26.29069983 -21.27927611 0 0 Z " fill="#544B49" transform="translate(482.6640625,367.15625)"/>
<path d="M0 0 C1.1446875 0.3403125 1.1446875 0.3403125 2.3125 0.6875 C2.3125 2.0075 2.3125 3.3275 2.3125 4.6875 C1.6525 4.6875 0.9925 4.6875 0.3125 4.6875 C-4.5447805 21.72036361 -7.86109804 37.69595618 1.2265625 54.12890625 C2.9713464 56.63311049 4.44616419 57.64519607 7.3125 58.6875 C13.59088569 59.40797049 18.18354834 58.47266632 23.3125 54.6875 C30.25840286 48.11667589 33.10823895 40.26825826 33.40234375 30.79296875 C32.89344501 21.46315847 29.71311008 15.00497926 23.44140625 8.26171875 C22.3125 6.6875 22.3125 6.6875 22.4375 3.75 C22.870625 2.7290625 22.870625 2.7290625 23.3125 1.6875 C26.42003785 1.15694476 28.49576032 1.11314758 31.12890625 2.96484375 C38.8612884 10.3298125 42.27670606 19.38267939 42.625 29.9375 C42.31138079 42.5345383 38.16938487 52.30587993 29.0625 61.0625 C23.33293383 65.56155532 16.43176696 68.13220012 9.125 67.75 C4.03919316 66.89564893 -0.0262058 65.40379218 -3.6875 61.6875 C-11.88247433 48.84870689 -14.65944143 34.10490221 -11.40112305 19.28491211 C-11.22750244 18.53089111 -11.05388184 17.77687012 -10.875 17 C-10.7097583 16.27498291 -10.5445166 15.54996582 -10.37426758 14.80297852 C-6.57746118 -0.76482107 -6.57746118 -0.76482107 0 0 Z " fill="#544C4A" transform="translate(384.6875,420.3125)"/>
<path d="M0 0 C2.694357 0.99089989 3.78169566 1.54547082 5.046875 4.1796875 C8.04667412 15.67891745 8.46186159 26.76069216 2.67578125 37.4453125 C-0.29921984 42.17720399 -3.38970347 45.82401795 -8 49 C-8.99 49 -9.98 49 -11 49 C-14.67924568 35.6627344 -13.64690637 23.5829328 -8 11 C-5.68763251 7.09575005 -3.22531198 3.22531198 0 0 Z " fill="#DADADA" transform="translate(351,517)"/>
<path d="M0 0 C0.7791944 17.05569973 -6.34578235 29.68114536 -17.4375 42.375 C-19.57922004 44.69109808 -21.34691286 46.23127524 -24 48 C-24.99 48 -25.98 48 -27 48 C-27.80917337 32.50582852 -23.0562426 21.57480273 -13 10 C-3.79019074 0 -3.79019074 0 0 0 Z " fill="#DBDADA" transform="translate(333,375)"/>
<path d="M0 0 C8.94367123 8.17707084 12.48885354 17.46850083 13.21484375 29.5859375 C13.30607599 38.60779282 13.30607599 38.60779282 12 43 C4.24595918 40.34147172 -0.37010986 35.20270654 -4 28 C-6.79089168 19.55388043 -3.90485885 7.8097177 0 0 Z " fill="#D9D8D8" transform="translate(442,505)"/>
<path d="M0 0 C4.1532744 2.16724092 6.47162711 4.51448046 9.1875 8.3125 C9.86167969 9.23675781 10.53585937 10.16101563 11.23046875 11.11328125 C14.47425937 16.40502798 15.27683601 20.89692707 15.25 27.0625 C15.25515625 28.24972656 15.2603125 29.43695313 15.265625 30.66015625 C15.00995097 33.87488113 14.37732596 36.1087086 13 39 C9.74177004 35.23222306 7.44722421 31.31365681 5.375 26.8125 C5.06941162 26.14976074 4.76382324 25.48702148 4.44897461 24.80419922 C0.75545999 16.53369814 -0.29104112 9.02227459 0 0 Z " fill="#D7D7D7" transform="translate(473,371)"/>
<path d="M0 0 C3.29714793 0.32971479 4.6226839 0.6226839 7 3 C6.43181818 8.56818182 6.43181818 8.56818182 5 10 C2 10.125 2 10.125 -1 10 C-2 9 -2 9 -2.1875 5.5625 C-2 2 -2 2 0 0 Z " fill="#574F4D" transform="translate(430,422)"/>
<path d="M0 0 C0.66 0.66 1.32 1.32 2 2 C1.67028521 5.29714793 1.3773161 6.6226839 -1 9 C-4.125 9.125 -4.125 9.125 -7 9 C-8.35439668 6.29120665 -8.06501451 3.99066732 -8 1 C-5.23749964 -0.38125018 -3.05268901 -0.19079306 0 0 Z " fill="#584F4E" transform="translate(366,421)"/>
</svg>
