<?xml version="1.0" encoding="UTF-8"?>
<!-- Generator: visioncortex VTracer 0.6.4 -->
<svg version="1.1" xmlns="http://www.w3.org/2000/svg" width="1000" height="1000">
<path d="M0 0 C330 0 660 0 1000 0 C1000 330 1000 660 1000 1000 C670 1000 340 1000 0 1000 C0 670 0 340 0 0 Z " fill="#DFDFDF" transform="translate(0,0)"/>
<path d="M0 0 C3.85418821 2.55618681 7.33226448 5.51699676 10.75 8.625 C11.00265625 8.02816406 11.2553125 7.43132812 11.515625 6.81640625 C15.1539219 0.35727789 23.59594645 -3.32364882 30.3125 -5.5625 C39.1899969 -7.56545341 49.50728734 -7.52365008 57.75 -3.375 C62.08180456 -0.18594143 65.76115632 3.14173447 68.75 7.625 C69.00760279 10.31952521 68.83900053 12.91048375 68.75 15.625 C69.41 15.295 70.07 14.965 70.75 14.625 C89.94363511 13.08636826 109.20519904 15.16851093 124.92578125 27.3046875 C128.80582054 31.02730276 129.90760416 34.12484634 130.0625 39.375 C130.09988281 40.19484375 130.13726563 41.0146875 130.17578125 41.859375 C129.57618662 45.75398969 127.83202061 48.29048179 125.75 51.625 C126.33378418 51.63958252 126.91756836 51.65416504 127.51904297 51.66918945 C130.22161959 51.74469085 132.92309464 51.84100338 135.625 51.9375 C136.5428125 51.96005859 137.460625 51.98261719 138.40625 52.00585938 C149.58235876 52.43873683 159.23165377 55.27777981 167.38671875 63.21875 C171.18257434 67.83033387 172.06389872 72.73478282 171.75 78.625 C170.632726 84.25057261 168.22694519 87.95160908 163.75 91.625 C163.09 91.625 162.43 91.625 161.75 91.625 C161.75 92.285 161.75 92.945 161.75 93.625 C162.82636719 93.65078125 163.90273438 93.6765625 165.01171875 93.703125 C178.89164518 94.18036718 192.06138728 96.12038143 202.41015625 106.25 C205.5049091 109.974048 206.60225854 113.39241421 206.2890625 118.23046875 C204.54173339 125.99215529 199.51389491 131.55187197 193.20703125 136.0859375 C189.20775229 138.59105023 185.04543433 140.67905167 180.75 142.625 C183.18625917 145.06125917 185.02485841 145.45078764 188.3125 146.4375 C199.10945312 149.95908686 207.66685513 154.98988958 213.75 164.875 C215.98921215 173.27204557 215.70208893 180.73580222 211.37109375 188.3671875 C207.35566879 193.95975527 202.13864359 198.03912045 195.75 200.625 C195.09 200.625 194.43 200.625 193.75 200.625 C193.75 201.285 193.75 201.945 193.75 202.625 C194.84634766 202.78742188 194.84634766 202.78742188 195.96484375 202.953125 C202.37849348 204.5003168 208.19103477 209.13826194 211.75 214.625 C213.64666047 220.31498142 213.93887258 226.65062507 211.69140625 232.2734375 C207.47145598 239.15801761 202.79114893 241.62342214 195.125 243.5234375 C191.67494336 244.28161527 188.22300316 244.98112863 184.75 245.625 C185.2553125 246.07488281 185.760625 246.52476562 186.28125 246.98828125 C190.10413955 250.77324531 192.30372831 253.64043334 192.625 259.125 C192.28455048 264.44637398 190.32596051 267.31081837 186.671875 271.06640625 C183.32449303 273.78105138 180.82485316 274.89416177 176.5 274.75 C175.2625 274.70875 174.025 274.6675 172.75 274.625 C172.6571875 275.9553125 172.6571875 275.9553125 172.5625 277.3125 C171.54442141 281.46312812 170.02902029 282.94216522 166.75 285.625 C161.68393811 288.58020277 155.72114408 288.40262167 150.16796875 286.94921875 C148.00211525 286.22954144 145.87084645 285.46732199 143.75 284.625 C143.8325 285.841875 143.915 287.05875 144 288.3125 C144 291.60107044 143.78575516 292.56625938 142 295.5 C138.40367132 298.89653264 135.68705987 299.90510402 130.75 299.875 C129.904375 299.88015625 129.05875 299.8853125 128.1875 299.890625 C125.61521189 299.61031155 123.9696892 298.9198187 121.75 297.625 C121.87375 298.470625 121.9975 299.31625 122.125 300.1875 C121.59752025 305.02273102 119.29522357 307.43345669 115.75 310.625 C112.05081169 312.75203328 108.97398397 312.82146437 104.75 312.625 C104.8325 313.676875 104.915 314.72875 105 315.8125 C104.70894856 320.2510345 103.94071703 321.60675416 100.75 324.625 C97.78533048 326.14348927 96.09238213 326.625 92.75 326.625 C92.688125 327.6975 92.62625 328.77 92.5625 329.875 C91.75 333.625 91.75 333.625 89.4375 336 C84.48392306 338.99518605 79.4279779 339.17077528 73.75 338.625 C69.97911713 337.57552204 65.86571137 336.06303097 63.75 332.625 C64.0625 329.9375 64.0625 329.9375 64.75 327.625 C71.5 328.5 71.5 328.5 73.75 329.625 C75.79055005 329.69565617 77.83334257 329.70921976 79.875 329.6875 C80.97070312 329.67847656 82.06640625 329.66945313 83.1953125 329.66015625 C84.03835938 329.64855469 84.88140625 329.63695312 85.75 329.625 C85.75 328.305 85.75 326.985 85.75 325.625 C85.028125 325.563125 84.30625 325.50125 83.5625 325.4375 C79.79028505 324.34774901 78.1757298 322.67448889 75.75 319.625 C75.3125 316.9375 75.3125 316.9375 75.75 314.625 C76.41 313.965 77.07 313.305 77.75 312.625 C82.02200008 312.70715385 84.71858659 313.3038533 87.875 316.125 C90.72987878 318.60750329 92.06801734 319.30011918 95.75 319.625 C96.41 316.655 97.07 313.685 97.75 310.625 C96.63625 310.2846875 96.63625 310.2846875 95.5 309.9375 C92.10676279 308.31800042 90.66094984 306.85891511 88.75 303.625 C89 300.3125 89 300.3125 89.75 297.625 C91.98046875 296.91796875 91.98046875 296.91796875 94.75 296.625 C96.98828125 297.98828125 96.98828125 297.98828125 99.0625 299.9375 C100.10857422 300.89076172 100.10857422 300.89076172 101.17578125 301.86328125 C102.75 303.625 102.75 303.625 102.75 305.625 C106.12335275 305.30063916 109.0680705 304.92225132 112.1875 303.5625 C114.23474216 301.02391972 114.35754984 298.82140275 114.22265625 295.61328125 C113.46226074 292.41459269 111.10261036 290.80116458 108.75 288.625 C108.375 285.875 108.375 285.875 108.75 283.625 C109.75 282.625 109.75 282.625 112.8125 282.5625 C113.781875 282.583125 114.75125 282.60375 115.75 282.625 C115.976875 283.24375 116.20375 283.8625 116.4375 284.5 C118.15748917 287.28474437 119.69115029 287.60538343 122.75 288.625 C123.36617187 288.97046875 123.98234375 289.3159375 124.6171875 289.671875 C127.09122757 290.77748998 128.80610741 290.82923213 131.5 290.75 C132.29921875 290.73195313 133.0984375 290.71390625 133.921875 290.6953125 C134.52515625 290.67210937 135.1284375 290.64890625 135.75 290.625 C136.37640806 284.73676427 134.97470141 281.66431407 131.74609375 276.73828125 C130.75 274.625 130.75 274.625 131.09765625 272.35546875 C131.31292969 271.78441406 131.52820313 271.21335937 131.75 270.625 C133.75 269.75 133.75 269.75 136.75 269.625 C138.4765625 270.75390625 138.4765625 270.75390625 140.375 272.3125 C145.37222835 276.35562615 151.37731132 279.51568278 157.9375 279.6796875 C160.41735753 279.35937257 162.51415745 278.74292127 164.75 277.625 C164.14811941 272.12209177 161.47359343 270.18194612 157.46484375 266.6875 C155.75 264.625 155.75 264.625 155.44140625 261.9375 C155.75 259.625 155.75 259.625 156.75 258.625 C162.05843014 258.625 164.89183049 260.23649987 169.25 263.25 C173.62783963 266.31505071 173.62783963 266.31505071 178.75 266.8125 C181.74452521 265.81125855 181.74452521 265.81125855 183.75 263.9375 C185.17780769 260.63569472 184.92748561 259.01892912 183.75 255.625 C179.69787847 251.46897792 174.82576132 248.76012017 169.82421875 245.859375 C167.75 244.625 167.75 244.625 166.75 243.625 C166.5625 241.1875 166.5625 241.1875 166.75 238.625 C169.32250415 236.05249585 170.37494547 236.36276243 173.94921875 236.31640625 C174.99400391 236.29126953 176.03878906 236.26613281 177.11523438 236.24023438 C179.31049275 236.205389 181.50581032 236.1740742 183.70117188 236.14648438 C190.9945249 235.96314442 196.43310522 235.50546125 202.125 230.5625 C204.3141116 227.9524054 204.72638725 226.82964386 205.125 223.375 C204.66445947 218.76959474 203.23912196 216.48117467 199.75 213.625 C193.20413775 209.25696716 186.33149912 207.66063517 178.65625 206.30078125 C175.75 205.625 175.75 205.625 173.75 203.625 C173.5 201.125 173.5 201.125 173.75 198.625 C176.53071305 195.84428695 178.88763266 195.98238841 182.75 195.375 C190.94697244 193.91213152 197.47403956 191.14665747 203.25 184.9375 C203.9925 183.7928125 203.9925 183.7928125 204.75 182.625 C205.41 181.635 206.07 180.645 206.75 179.625 C207.65170463 174.81274478 207.15742208 170.64675568 204.75 166.375 C197.48452298 156.18315029 182.90850331 152.8222992 171.30859375 150.3984375 C168.52784041 149.55784336 166.85535841 148.61852644 164.75 146.625 C164.25 143.625 164.25 143.625 164.75 140.625 C167.519529 138.08258499 170.26758255 136.95585335 173.8125 135.8125 C183.09304314 132.54505309 192.14732436 128.83035127 196.75 119.625 C197.41830771 116.2950329 197.41830771 116.2950329 196.75 112.625 C192.16182175 106.58203353 185.12719847 104.23778423 177.91796875 102.9296875 C176.59248122 102.77458607 175.26551073 102.63176169 173.9375 102.5 C173.22263428 102.42072266 172.50776855 102.34144531 171.77124023 102.25976562 C165.13815647 101.5671947 158.48436035 101.24346074 151.8190918 101.05419922 C145.96306406 100.83806406 145.96306406 100.83806406 143.75 98.625 C143.625 96 143.625 96 143.75 93.625 C146.01896632 92.30917937 148.29003187 90.99724764 150.5625 89.6875 C151.20509766 89.31431641 151.84769531 88.94113281 152.50976562 88.55664062 C155.23316424 86.99033365 157.76108122 85.62130626 160.75 84.625 C162.56124933 81.1031263 163.50328309 77.57247059 163.75 73.625 C162.39599355 70.89518168 162.39599355 70.89518168 160.75 68.625 C160.75 67.965 160.75 67.305 160.75 66.625 C159.41787439 65.95592334 158.08424908 65.28983202 156.75 64.625 C156.08226562 64.27179688 155.41453125 63.91859375 154.7265625 63.5546875 C142.95370072 58.27450032 128.24961856 59.85734095 115.74829102 61.61254883 C114.75913696 61.61871216 114.75913696 61.61871216 113.75 61.625 C113.09 60.965 112.43 60.305 111.75 59.625 C111.93423941 54.92288997 114.2131198 52.66409894 117.3125 49.3125 C121.24911769 44.81015995 121.24911769 44.81015995 122.625 39.1875 C121.54830997 34.80383346 120.37634089 34.17539359 116.75 31.625 C101.51272341 22.4708222 86.04834294 19.53465812 68.70703125 23.75390625 C65.58393071 24.57952505 65.58393071 24.57952505 62.25 26.375 C59.26057127 27.86971436 57.87580862 27.63629102 54.75 26.625 C54.375 24.5625 54.375 24.5625 54.75 21.625 C56.0859375 19.91015625 56.0859375 19.91015625 57.75 18.125 C59.68166848 15.99048328 60.68218263 14.83888556 61.5625 12.0625 C60.08307595 7.62422784 55.85135555 4.67567777 51.75 2.625 C42.60631725 1.69890905 31.82807896 0.93545086 23.796875 5.93359375 C18.41339823 10.38215375 14.09162984 14.97477124 11.75 21.625 C10.1 21.625 8.45 21.625 6.75 21.625 C6.358125 20.408125 5.96625 19.19125 5.5625 17.9375 C2.84550437 10.73873121 -2.83849109 7.24433342 -9.25 3.4375 C-17.79645918 -0.03449904 -29.37139962 0.53319841 -37.96484375 3.5234375 C-44.02993365 6.44712186 -48.80718466 11.07882011 -51.58203125 17.234375 C-52.73998429 21.37862799 -52.84735228 25.58337175 -52.9765625 29.8671875 C-53.25 32.625 -53.25 32.625 -55.25 34.625 C-58.81013034 34.55331952 -60.05742351 33.81502581 -62.609375 31.296875 C-63.79273438 29.85054688 -63.79273438 29.85054688 -65 28.375 C-69.92930578 22.76755008 -74.29817708 18.44041994 -81.859375 17.1953125 C-85.88311554 16.99293502 -88.52836365 17.24849408 -92.125 19.125 C-99.14667527 27.38579444 -98.87971245 35.31216816 -98.25 45.625 C-98.03730469 46.90246094 -97.82460938 48.17992187 -97.60546875 49.49609375 C-97.42951172 51.04490234 -97.42951172 51.04490234 -97.25 52.625 C-98.24 53.615 -98.24 53.615 -99.25 54.625 C-103.31777138 54.37763552 -106.32348066 51.62659089 -109.5 49.3125 C-118.60709373 42.9146624 -124.71691242 39.06339717 -136.25 40.625 C-141.73964165 43.02047999 -144.91236495 47.20367616 -147.25 52.625 C-148.2651181 59.50524489 -146.14924895 65.3804638 -143.25 71.625 C-142.7034375 72.346875 -142.156875 73.06875 -141.59375 73.8125 C-140.25 75.625 -140.25 75.625 -140.5625 77.875 C-140.789375 78.4525 -141.01625 79.03 -141.25 79.625 C-143.3125 80.4375 -143.3125 80.4375 -146.25 80.625 C-147.88631805 79.42280715 -149.51908178 78.21516625 -151.125 76.97265625 C-159.14214601 71.88825299 -170.09512991 71.67942656 -179.25 72.625 C-187.32521278 74.49880628 -193.50629262 78.91892717 -198.6328125 85.36328125 C-202.85218604 92.25295763 -202.27135195 100.98963345 -200.58984375 108.62109375 C-198.60393348 114.68198874 -195.54800242 119.39777227 -191.54296875 124.3359375 C-190.25 126.625 -190.25 126.625 -190.48828125 129.3515625 C-191.25 131.625 -191.25 131.625 -192.25 132.625 C-194.54500376 132.67618122 -196.84154805 132.6602371 -199.13671875 132.6171875 C-200.56444582 132.59965515 -201.99218069 132.58274844 -203.41992188 132.56640625 C-205.67364036 132.53556357 -207.92696927 132.50021779 -210.18041992 132.45361328 C-212.35340052 132.41100112 -214.52593199 132.38774703 -216.69921875 132.3671875 C-218.00205811 132.3451123 -219.30489746 132.32303711 -220.6472168 132.30029297 C-225.63967799 132.75024712 -228.87269728 134.42892132 -232.625 137.6875 C-235.04548433 142.0629909 -235.05989202 145.73723061 -234.25 150.625 C-230.55820221 161.60238105 -222.78453444 167.72266916 -213.25 173.625 C-213.58 175.275 -213.91 176.925 -214.25 178.625 C-217.80122241 179.7537504 -220.98306437 179.62614423 -224.6875 179.5 C-234.08751948 179.44118862 -243.85039085 180.36379226 -251.25 186.625 C-252.013125 187.2025 -252.77625 187.78 -253.5625 188.375 C-255.95907852 191.57043802 -256.31784742 194.73508097 -256.25 198.625 C-253.97492142 208.96626627 -245.64386668 215.84574299 -237.1875 221.5 C-233.34326006 223.7972621 -229.62822085 224.76499233 -225.25 225.625 C-224.625 228 -224.625 228 -224.25 230.625 C-224.91 231.285 -225.57 231.945 -226.25 232.625 C-227.837018 232.56220432 -229.42163011 232.42696875 -231 232.25 C-234.08055976 232.20088963 -235.69333265 232.23751586 -238.2421875 234.01171875 C-242.09236581 238.55271853 -243.19633063 242.92273072 -242.8203125 248.81640625 C-241.59001897 254.87518055 -238.8169347 259.57409856 -233.9765625 263.44140625 C-228.99261645 266.57799059 -223.76946641 268.74030741 -218.18359375 270.5703125 C-216.25 271.625 -216.25 271.625 -215.47265625 273.7421875 C-215.39917969 274.36351562 -215.32570313 274.98484375 -215.25 275.625 C-218.4173953 276.16577481 -221.55370717 276.65754005 -224.75 277 C-229.18657221 277.79224504 -232.38603929 279.48257247 -236.1875 281.8125 C-237.72117671 284.42877204 -237.38809239 286.72269643 -236.87109375 289.6328125 C-235.55130781 293.86608816 -232.77840341 295.7874456 -229.01171875 297.8515625 C-223.65768101 300.29959842 -219.98635677 300.82189741 -214.23046875 299.79296875 C-211.2133761 299.53708121 -209.53148181 300.77129603 -207.25 302.625 C-206.25 303.625 -206.25 303.625 -206 306.0625 C-206.0825 306.908125 -206.165 307.75375 -206.25 308.625 C-209.47791555 310.7769437 -210.53400809 310.82586443 -214.25 310.625 C-213.84879957 316.44240621 -213.18859349 320.06452333 -209.25 324.625 C-206.98013112 326.21086821 -204.74308838 327.37845581 -202.25 328.625 C-201.59 328.955 -200.93 329.285 -200.25 329.625 C-196.18240404 330.25820532 -196.18240404 330.25820532 -192.25 329.625 C-190.00087355 327.70736793 -188.11182074 325.61039944 -186.1328125 323.41796875 C-184.25 321.625 -184.25 321.625 -181 320.9375 C-177.91875601 321.707811 -176.34081445 322.21252178 -174.25 324.625 C-173.6875 327.5 -173.6875 327.5 -174.25 330.625 C-177.28653156 334.35559591 -180.05153974 336.10592384 -184.25 338.625 C-179.63 338.625 -175.01 338.625 -170.25 338.625 C-170.1675 337.5525 -170.085 336.48 -170 335.375 C-169.18736887 331.31184437 -168.61533514 329.96203829 -165.25 327.625 C-162.34302053 327.12868643 -160.94798407 327.19176851 -158.4375 328.75 C-156.67465546 331.53343874 -156.86817761 333.37950966 -157.25 336.625 C-158.75 340 -158.75 340 -160.25 342.625 C-158.03631706 344.83868294 -156.31983375 346.49052921 -153.13671875 346.890625 C-151.17253213 346.87666986 -149.2097375 346.75786356 -147.25 346.625 C-146.76789063 345.66078125 -146.28578125 344.6965625 -145.7890625 343.703125 C-143.27604167 338.67708333 -140.76302083 333.65104167 -138.25 328.625 C-136.93 328.955 -135.61 329.285 -134.25 329.625 C-133.33836903 337.46502632 -136.26915422 345.41852727 -140.7890625 351.796875 C-143.95729926 354.95009642 -146.7360738 356.02575169 -151.1875 356.3125 C-156.49388953 355.98893966 -160.19110499 353.95273148 -164.25 350.625 C-164.84748047 349.81675781 -164.84748047 349.81675781 -165.45703125 348.9921875 C-168.41706973 346.73507755 -171.91346898 347.12687363 -175.5 347.0625 C-188.23823077 346.76238462 -188.23823077 346.76238462 -193.1875 343.25 C-194.25 341.625 -194.25 341.625 -194.25 337.625 C-195.36375 337.728125 -196.4775 337.83125 -197.625 337.9375 C-203.93876779 337.91511075 -209.46475827 335.13580491 -214.11328125 330.9453125 C-215.63898035 329.24167827 -216.96169004 327.51282054 -218.25 325.625 C-218.86875 324.738125 -219.4875 323.85125 -220.125 322.9375 C-221.84069234 317.88573923 -221.48090279 312.91010819 -221.25 307.625 C-221.86746094 307.55023437 -222.48492187 307.47546875 -223.12109375 307.3984375 C-230.79452571 306.20712843 -236.65955946 303.60971788 -241.921875 297.76953125 C-244.84520772 293.65551526 -246.10681906 289.86352107 -245.80078125 284.80078125 C-244.78562489 280.79055363 -242.37737585 278.22410291 -239.25 275.625 C-235.875 273.6875 -235.875 273.6875 -233.25 272.625 C-234.01183594 272.20541016 -234.01183594 272.20541016 -234.7890625 271.77734375 C-243.53970649 266.68099491 -248.52489818 260.46564545 -251.25 250.625 C-252.5950666 243.8300946 -250.56321254 239.5719259 -246.85546875 233.88671875 C-245.35421206 231.77180969 -243.82191108 229.68783827 -242.25 227.625 C-242.89066406 227.20089844 -243.53132813 226.77679688 -244.19140625 226.33984375 C-253.69703336 219.89415025 -260.87467142 214.00553265 -264.25 202.625 C-265.03691644 197.03375161 -265.0790728 192.41579725 -262.6875 187.25 C-261.883125 186.38375 -261.07875 185.5175 -260.25 184.625 C-259.57324219 183.87669922 -259.57324219 183.87669922 -258.8828125 183.11328125 C-251.43529186 175.75839146 -240.32045947 173.14807175 -230.25 171.625 C-230.78109375 171.09132813 -231.3121875 170.55765625 -231.859375 170.0078125 C-239.10706914 162.36334678 -242.39261065 155.99616473 -242.75 145.375 C-242.51204725 138.05398704 -240.68512461 134.95189685 -235.4375 129.9375 C-228.0207613 124.55672879 -222.27970526 124.22041682 -213.3125 124.4375 C-212.24708984 124.45103516 -211.18167969 124.46457031 -210.08398438 124.47851562 C-207.47212412 124.51365276 -204.86133366 124.56284816 -202.25 124.625 C-202.74371094 123.66078125 -203.23742187 122.6965625 -203.74609375 121.703125 C-204.39344237 120.42719148 -205.04056599 119.15114379 -205.6875 117.875 C-206.01298828 117.24078125 -206.33847656 116.6065625 -206.67382812 115.953125 C-210.58238013 108.21660969 -211.29575569 101.2786283 -210.25 92.625 C-206.08934339 80.3333041 -199.20974801 73.24769492 -187.7421875 67.5703125 C-181.71882279 65.28558796 -175.53973491 65.44214684 -169.1875 65.4375 C-167.86008789 65.41913086 -167.86008789 65.41913086 -166.50585938 65.40039062 C-161.98018804 65.39020532 -158.3550382 65.46580111 -154.25 67.625 C-154.40984375 66.91085937 -154.5696875 66.19671875 -154.734375 65.4609375 C-156.27753461 56.97355962 -155.782504 49.76579851 -150.80859375 42.52734375 C-146.67654627 37.24484221 -142.89033185 34.65641249 -136.25 33.625 C-124.26627335 32.23454368 -115.67694601 35.25604924 -106.25 42.625 C-106.29640625 41.73039062 -106.3428125 40.83578125 -106.390625 39.9140625 C-106.68713822 29.98086977 -105.87097123 22.23456222 -99 14.6875 C-94.25933292 10.42089963 -89.43219762 8.27223837 -83 8.5625 C-74.45196301 9.91063062 -66.46781583 14.75261839 -60.25 20.625 C-60.25 19.696875 -60.25 18.76875 -60.25 17.8125 C-59.18730089 10.73262622 -53.93263111 4.77801295 -48.51953125 0.43359375 C-33.46643436 -9.51183164 -15.36209527 -9.02450083 0 0 Z " fill="#4F4644" transform="translate(526.25,259.375)"/>
<path d="M0 0 C2.38313638 3.57470457 2.64837918 4.78553535 2 9 C-1.79584615 16.90044534 -11.22622499 20.21928363 -19 23 C-35.22520611 28.12096249 -52.03275193 29.34670385 -68.93579102 29.26074219 C-71.43205113 29.2500234 -73.92758959 29.26071033 -76.42382812 29.2734375 C-90.22046476 29.28701261 -104.20639479 28.76809845 -117.4375 24.5 C-118.15486328 24.28730469 -118.87222656 24.07460938 -119.61132812 23.85546875 C-122.65653349 22.91980716 -124.71568979 22.28431021 -127 20 C-127.25 17.5 -127.25 17.5 -127 15 C-125 13 -125 13 -122.6875 12.6875 C-120 13 -120 13 -117.75 14.421875 C-112.40103101 17.4914538 -106.03013925 18.02905716 -100 19 C-99.34402832 19.10731445 -98.68805664 19.21462891 -98.01220703 19.32519531 C-76.23183537 22.71408989 -53.61210496 22.14565683 -32 18 C-30.74960937 17.77183594 -29.49921875 17.54367187 -28.2109375 17.30859375 C-19.85246227 15.59579145 -12.12399201 12.74932801 -5 8 C-5.31728345 5.03868779 -5.90914913 4.08244181 -8.15234375 2.046875 C-11.14416247 -0.10362296 -13.99076662 -1.54848731 -17.375 -3 C-18.45523438 -3.474375 -19.53546875 -3.94875 -20.6484375 -4.4375 C-22.09293883 -4.97480249 -23.54455987 -5.49307588 -25 -6 C-25.96881104 -6.34925537 -26.93762207 -6.69851074 -27.93579102 -7.05834961 C-39.1270278 -10.59014284 -50.15881007 -10.64353178 -61.82250977 -10.57641602 C-65.1645978 -10.56259471 -68.50385166 -10.59667555 -71.84570312 -10.63476562 C-88.78712645 -10.6978928 -105.41966438 -9.3927411 -120 0 C-120.66 0.66 -121.32 1.32 -122 2 C-124.625 1.625 -124.625 1.625 -127 1 C-127.6875 -1.3125 -127.6875 -1.3125 -128 -4 C-125.5360999 -7.67644936 -121.18409404 -8.63873585 -117.1875 -10 C-116.42993408 -10.26127686 -115.67236816 -10.52255371 -114.8918457 -10.79174805 C-82.80253057 -21.57114801 -27.47864485 -23.92652735 0 0 Z " fill="#504744" transform="translate(605,379)"/>
<path d="M0 0 C5.73015873 3.34259259 5.73015873 3.34259259 8 5.75 C8.3125 9 8.3125 9 8 11.75 C6.3125 12.5 6.3125 12.5 4 12.75 C1.5 10.9375 1.5 10.9375 -1 8.75 C-4.65791111 6.32537543 -7.94373006 6.54525426 -12.25 6.625 C-14.4775 6.66625 -16.705 6.7075 -19 6.75 C-19 11.7 -19 16.65 -19 21.75 C-16.75390625 21.65234375 -14.5078125 21.5546875 -12.26171875 21.45703125 C-10 21.75 -10 21.75 -8.19140625 23.09765625 C-7 24.75 -7 24.75 -7.25 27.375 C-8 29.75 -8 29.75 -9 30.75 C-12.27532727 31.13155485 -15.54735614 31.47016806 -18.83398438 31.73632812 C-23.88509941 32.26336044 -26.83502582 33.67154082 -31 36.75 C-31.66 36.75 -32.32 36.75 -33 36.75 C-32.27683594 37.85794922 -32.27683594 37.85794922 -31.5390625 38.98828125 C-27.2583209 45.86367643 -24.77933948 51.67031723 -24 59.75 C-12.40909829 55.85410193 -5.44888731 50.27248563 1.078125 39.91015625 C3 37.75 3 37.75 5.734375 37.43359375 C6.48203125 37.53800781 7.2296875 37.64242187 8 37.75 C8.49120036 41.81907949 8.25681488 43.38915884 5.83984375 46.78515625 C4.89026018 47.81109911 3.92177122 48.81978762 2.9375 49.8125 C2.42799805 50.33980713 1.91849609 50.86711426 1.39355469 51.41040039 C-4.60900283 57.52252841 -9.40059945 60.75162248 -17.5 63.625 C-18.12938477 63.8530835 -18.75876953 64.08116699 -19.40722656 64.31616211 C-25.75123578 66.39308957 -30.93159961 65.5468943 -36.875 62.75 C-37.63554687 62.399375 -38.39609375 62.04875 -39.1796875 61.6875 C-41 60.75 -41 60.75 -42 59.75 C-43.134375 59.605625 -44.26875 59.46125 -45.4375 59.3125 C-49 58.75 -49 58.75 -51 56.75 C-50.63318342 53.81546739 -50.13562754 52.88562754 -48 50.75 C-47.01 50.75 -46.02 50.75 -45 50.75 C-44.97421875 50.16992188 -44.9484375 49.58984375 -44.921875 48.9921875 C-44.2835879 40.20123331 -40.18654144 35.65533501 -34 29.75 C-35.20381448 27.25638429 -36.45428722 25.06856917 -38 22.75 C-38 21.76 -38 20.77 -38 19.75 C-38.804375 19.605625 -39.60875 19.46125 -40.4375 19.3125 C-43 18.75 -43 18.75 -44 17.75 C-44.1875 15.3125 -44.1875 15.3125 -44 12.75 C-42 10.75 -42 10.75 -39.125 10.625 C-38.09375 10.66625 -37.0625 10.7075 -36 10.75 C-32.09378424 11.18161355 -32.09378424 11.18161355 -30.10546875 9.140625 C-29.47253906 8.43421875 -28.83960938 7.7278125 -28.1875 7 C-20.33030233 -1.11622616 -11.29654363 -4.48393508 0 0 Z " fill="#514846" transform="translate(459,357.25)"/>
<path d="M0 0 C2.6875 -0.375 2.6875 -0.375 6 0 C11.30361739 5.06790106 11.98657753 8.89957308 12.25 15.875 C12.19218173 21.41729431 11.0598298 25.52820424 7.4375 29.875 C4.045345 32.52973 1.22427772 32.27700182 -3 32 C-5.36522558 31.07796291 -7.70401807 30.08301035 -10 29 C-11.32276056 28.62691369 -12.65232077 28.26953585 -14 28 C-14.474375 28.721875 -14.94875 29.44375 -15.4375 30.1875 C-20.00026093 35.19540834 -25.21328992 38.24425374 -32.0625 38.6875 C-36.87126272 38.43954817 -39.79576442 36.65770078 -43.50390625 33.703125 C-45.17172423 31.80451236 -45.60803979 30.46988626 -46 28 C-46.70125 28.721875 -47.4025 29.44375 -48.125 30.1875 C-54.57924388 36.60527923 -59.49966646 40.20103755 -68.81640625 40.265625 C-72.31234743 39.84035845 -74.40372679 38.66015963 -76.75 36.0625 C-79.01672574 30.50902194 -79.00117091 24.91287173 -77.05078125 19.23828125 C-74.75519289 14.39364841 -72.31504201 10.23628151 -68 7 C-65.1875 6.6875 -65.1875 6.6875 -63 7 C-63.56058017 10.95909746 -64.74675726 13.41054842 -67 16.6875 C-70.18761379 21.75870376 -70.97476829 26.0705477 -71 32 C-65.27956317 32.45763495 -62.40116157 31.71653644 -58 28 C-53.55259125 22.50614213 -51.34747978 15.85620229 -49.0390625 9.25 C-48 7 -48 7 -45.5 6.0625 C-44.675 6.041875 -43.85 6.02125 -43 6 C-41 8 -41 8 -40.9453125 10.79296875 C-41.03425781 12.47326172 -41.03425781 12.47326172 -41.125 14.1875 C-41.23753746 20.16522483 -40.56640278 23.24479629 -37 28 C-35.85712614 29.35445367 -35.85712614 29.35445367 -32.8125 29.3125 C-28.30095093 28.9427009 -26.46854451 27.85191438 -23 25 C-22.195625 24.34 -21.39125 23.68 -20.5625 23 C-18.36172046 18.77450327 -19.1947879 15.45301731 -19.93359375 10.83984375 C-20.01231598 7.47331058 -19.26652389 6.40493756 -17 4 C-14.125 4.1875 -14.125 4.1875 -11 5 C-9.12411041 7.9478265 -8.96151129 10.60941 -8.75 14 C-8.40984558 17.32595428 -7.65753812 18.80430193 -5.125 21 C-2.19723189 23.26952685 -2.19723189 23.26952685 1 23 C2.22485812 20.55028376 2.16722808 18.85765539 2.1875 16.125 C2.20167969 15.26132812 2.21585938 14.39765625 2.23046875 13.5078125 C1.98565894 10.84394985 1.21988829 9.34409906 0 7 C-0.0777346 4.66796188 -0.08967728 2.33160941 0 0 Z " fill="#4F4543" transform="translate(534,596)"/>
<path d="M0 0 C3.25 1.4375 3.25 1.4375 6 3 C7.98775876 3.97733657 7.98775876 3.97733657 10 4 C10.721875 3.525625 11.44375 3.05125 12.1875 2.5625 C16.17232151 0.34871027 19.53649849 0.32209619 24 1 C26.98451222 1.98189343 28.45067928 2.98178776 31 5 C31.9375 8.25 31.9375 8.25 32 11 C33.051875 11.04125 34.10375 11.0825 35.1875 11.125 C40.0859232 12.24922828 41.35037416 13.79177072 44 18 C44.39387788 20.32387947 44.73486085 22.65793749 45 25 C45.53625 25.515625 46.0725 26.03125 46.625 26.5625 C48 28 48 28 48.1875 30.75 C46.47249068 35.44370971 43.27170543 38.44000632 39 41 C36.296875 41.2578125 36.296875 41.2578125 34 41 C33 40 33 40 32.8125 37.5625 C33 35 33 35 35 33 C33.515 32.01 33.515 32.01 32 31 C31.625 28.5625 31.625 28.5625 32 26 C33 25 34 24 35 23 C34.63040255 20.92235212 34.63040255 20.92235212 34 19 C33.37351562 19.09539063 32.74703125 19.19078125 32.1015625 19.2890625 C31.28429687 19.39992188 30.46703125 19.51078125 29.625 19.625 C28.81289063 19.74101563 28.00078125 19.85703125 27.1640625 19.9765625 C26.44992187 19.98429688 25.73578125 19.99203125 25 20 C24.01 19.01 24.01 19.01 23 18 C23.36276645 15.17042171 24.09694764 12.70915709 25 10 C21.64541845 9.23477199 21.64541845 9.23477199 18 9 C16.14646548 10.10338257 16.14646548 10.10338257 15 12 C14.443125 12.721875 13.88625 13.44375 13.3125 14.1875 C12.879375 14.785625 12.44625 15.38375 12 16 C9.0920773 15.91188113 7.40572082 15.38446437 5.28515625 13.375 C4.69605469 12.735625 4.10695313 12.09625 3.5 11.4375 C0.86057254 8.52822488 0.86057254 8.52822488 -2.875 7.5 C-4.97216394 7.7967124 -4.97216394 7.7967124 -6 9 C-6.20604085 10.32781878 -6.3662959 11.66295895 -6.5 13 C-6.88888889 16.88888889 -6.88888889 16.88888889 -8 18 C-12.03160191 18.26293056 -13.55892734 18.29404844 -17 16 C-19.72283905 15.68745622 -22.24442486 15.86666572 -25 16 C-26.37768644 17.15568119 -26.37768644 17.15568119 -26.1875 20.3125 C-26.01034255 23.79659649 -25.52577563 25.05016712 -24 28 C-24.375 30.25 -24.375 30.25 -25 32 C-27.3125 32.6875 -27.3125 32.6875 -30 33 C-30.45375 32.525625 -30.9075 32.05125 -31.375 31.5625 C-33.056701 29.62552547 -33.056701 29.62552547 -36.5625 29.625 C-37.696875 29.74875 -38.83125 29.8725 -40 30 C-42.32623648 33.48935471 -42.25072494 34.90482598 -42 39 C-41.938125 40.11375 -41.938125 40.11375 -41.875 41.25 C-41.07740861 43.35748702 -41.07740861 43.35748702 -38.0625 44 C-37.051875 44.33 -36.04125 44.66 -35 45 C-33.625 47.125 -33.625 47.125 -33 49 C-36.39037524 51.26025016 -38.0427139 51.22042653 -42 50.609375 C-45.91287685 49.41717033 -48.09043695 46.54496702 -50.1015625 43.12890625 C-51.78321121 39.14412997 -51.73327514 35.2226534 -51 31 C-48.66408383 26.41917738 -45.85532302 22.91557666 -41 21 C-37.75 20.875 -37.75 20.875 -35 21 C-35.12375 19.6696875 -35.12375 19.6696875 -35.25 18.3125 C-34.94337175 14.24967563 -33.80119482 12.88122896 -31 10 C-27.45583865 7.63722577 -25.81607205 7.80754332 -21.625 7.75 C-17.06647624 7.58828815 -17.06647624 7.58828815 -13.10546875 5.640625 C-11.63094434 3.83917188 -11.63094434 3.83917188 -10 1 C-6.80791936 -0.59604032 -3.47373411 -0.38236999 0 0 Z " fill="#504745" transform="translate(501,544)"/>
<path d="M0 0 C5.14051171 5.35604679 7.37774232 10.17199654 7.28125 17.58984375 C6.53862231 23.95375046 2.88672217 29.02243545 -2 33 C-7.31575434 35.9645553 -12.02906208 36.91465314 -18 36 C-23.90179585 34.12456398 -27.55077225 31.07239375 -31 26 C-33.69444561 20.09788105 -33.84517764 14.09206024 -32 7.9375 C-30.00706506 3.11249962 -26.29593527 -0.15528279 -22 -3 C-14.45889369 -5.54327507 -6.56149184 -4.44408735 0 0 Z " fill="#4F4644" transform="translate(531,483)"/>
<path d="M0 0 C5.48345028 2.45312249 9.17195764 5.86735278 11.890625 11.3046875 C12.41841767 17.5164012 12.63466143 23.0630365 8.890625 28.3046875 C4.34493845 32.65273551 0.78657636 35.03654386 -5.484375 35.6171875 C-11.04825619 35.13754257 -15.24162964 33.63022831 -18.921875 29.3671875 C-23.19002718 23.39177445 -24.25691537 18.64691483 -23.109375 11.3046875 C-18.87694608 2.22228666 -9.92548685 -3.27173455 0 0 Z " fill="#4F4644" transform="translate(473.109375,483.6953125)"/>
<path d="M0 0 C3.8026029 2.0050088 5.61790841 3.42686262 8 7 C8.80337779 10.98598983 8.86241315 14.57146289 6.7265625 18.109375 C3.3961888 22.04084054 1.54816782 23.87098602 -3.75 24.3125 C-8.14635228 24.25654643 -10.63218282 22.88670044 -14 20 C-16.37965342 16.97135019 -16.35961865 13.75248888 -16.25390625 9.9609375 C-15.76483418 6.18379632 -13.84098065 3.93801688 -11.375 1.1875 C-7.63517523 -0.68241239 -4.09245951 -0.65252387 0 0 Z " fill="#D9D8D8" transform="translate(522,487)"/>
<path d="M0 0 C9.79745342 0.08164545 22.58589143 3.14839143 29.75 10.3125 C30.38930238 14.3309721 30.03412385 15.90538114 27.68359375 19.2734375 C24.72199887 22.65811736 21.44376622 24.39005307 17.375 26.1875 C16.74078125 26.49429687 16.1065625 26.80109375 15.453125 27.1171875 C11.08432512 29.11435316 7.6299026 29.62773919 2.75 29.3125 C2.42 27.9925 2.09 26.6725 1.75 25.3125 C6.44025757 21.30991177 11.52410129 18.70203095 16.984375 15.8984375 C19.83566799 14.60235989 19.83566799 14.60235989 20.75 12.3125 C19.88375 12.209375 19.0175 12.10625 18.125 12 C14.75 11.3125 14.75 11.3125 12.0625 9.8125 C8.10750005 8.02155662 4.73038186 7.77941637 0.43359375 7.5234375 C-2.19636874 7.31671556 -4.67629481 6.88029753 -7.25 6.3125 C-6.22241433 0.58737983 -5.85656263 0.1456475 0 0 Z " fill="#504745" transform="translate(687.25,363.6875)"/>
<path d="M0 0 C0.625 1.875 0.625 1.875 1 4 C-1.37595664 6.37595664 -1.90851724 6.25528279 -5.140625 6.30859375 C-6.37619141 6.34629883 -6.37619141 6.34629883 -7.63671875 6.38476562 C-9.36321255 6.41960519 -11.08978146 6.45092116 -12.81640625 6.47851562 C-17.89429904 6.64040801 -21.68695375 7.02661205 -26 10 C-29.37483891 13.98330043 -29.37438163 17.80503078 -29.1875 22.8125 C-29.17396484 23.50537109 -29.16042969 24.19824219 -29.14648438 24.91210938 C-29.11138845 26.60841265 -29.05758943 28.30431136 -29 30 C-31.375 30.625 -31.375 30.625 -34 31 C-37.28547219 27.71452781 -37.17351179 24.19393014 -37.25 19.6875 C-37.17194017 13.1738407 -35.96638415 9.27686585 -31.625 4.25 C-22.34601699 -3.70341401 -11.3345969 -3.48756828 0 0 Z " fill="#4E4543" transform="translate(371,345)"/>
<path d="M0 0 C5.73015873 3.34259259 5.73015873 3.34259259 8 5.75 C8.3125 9 8.3125 9 8 11.75 C6.3125 12.5 6.3125 12.5 4 12.75 C1.5 10.9375 1.5 10.9375 -1 8.75 C-4.65791111 6.32537543 -7.94373006 6.54525426 -12.25 6.625 C-14.4775 6.66625 -16.705 6.7075 -19 6.75 C-19 11.7 -19 16.65 -19 21.75 C-16.03 21.75 -13.06 21.75 -10 21.75 C-10 22.08 -10 22.41 -10 22.75 C-13.3 22.75 -16.6 22.75 -20 22.75 C-20.33 18.46 -20.66 14.17 -21 9.75 C-21.33 9.75 -21.66 9.75 -22 9.75 C-22.0825 10.69875 -22.165 11.6475 -22.25 12.625 C-22.93991766 17.63977467 -25.00337644 22.13454926 -27 26.75 C-31.875 25.875 -31.875 25.875 -33 24.75 C-33.41927653 20.47337943 -33.24122639 18.19918017 -31.1875 14.375 C-29 11.75 -29 11.75 -26 10.75 C-26.2784375 9.450625 -26.2784375 9.450625 -26.5625 8.125 C-25.91089295 4.21535767 -25.35828817 3.70936319 -22.3125 1.375 C-15.62059573 -2.65282864 -7.26367193 -2.83885868 0 0 Z " fill="#574E4D" transform="translate(459,357.25)"/>
<path d="M0 0 C0.83273437 -0.01224609 1.66546875 -0.02449219 2.5234375 -0.03710938 C3.71839844 -0.04000977 3.71839844 -0.04000977 4.9375 -0.04296875 C6.03384766 -0.04913208 6.03384766 -0.04913208 7.15234375 -0.05541992 C9 0.1875 9 0.1875 11 2.1875 C11.125 4.8125 11.125 4.8125 11 7.1875 C9.35451172 7.24357422 9.35451172 7.24357422 7.67578125 7.30078125 C6.22132143 7.36646653 4.76689584 7.43291299 3.3125 7.5 C2.59126953 7.52255859 1.87003906 7.54511719 1.12695312 7.56835938 C-3.30944184 7.791192 -6.42558901 8.28502286 -10 11.1875 C-10.69576844 14.74364979 -10.30229516 16.58290968 -8.6875 19.8125 C-3.79113432 24.13952083 2.72071673 25.70653696 9 27.1875 C9 28.1775 9 29.1675 9 30.1875 C5.21875977 32.07812011 1.53405105 31.57347118 -2.4375 30.57421875 C-9.52001824 28.12340832 -14.608675 23.97015 -18 17.1875 C-18.58493853 12.94669567 -18.89498621 10.54872249 -16.5078125 6.91796875 C-11.02693224 0.60699667 -8.11588843 0.00628165 0 0 Z " fill="#504745" transform="translate(296,444.8125)"/>
<path d="M0 0 C1.69140625 1.4375 1.69140625 1.4375 3 3 C3.1875 6.1875 3.1875 6.1875 3 9 C1.3125 9.8125 1.3125 9.8125 -1 10 C-3.5625 7.625 -3.5625 7.625 -6 5 C-12.84100351 2.7196655 -20.38730363 3.47255889 -27.0625 6.0234375 C-32.28816221 8.65733982 -34.70409486 12.80400416 -37 18 C-38.32 17.67 -39.64 17.34 -41 17 C-42.28390723 13.1482783 -41.96437366 10.44413641 -40.203125 6.76953125 C-31.71607561 -5.71304463 -11.97162954 -8.05782758 0 0 Z " fill="#524947" transform="translate(519,271)"/>
<path d="M0 0 C8.17895336 0.13380701 17.52764314 4.0380699 23.5 9.5625 C25.53935913 13.21635177 25.70179055 15.10943573 25 19.25 C21.89793879 25.19373042 17.1844447 29.63633587 11 32.25 C7.5 32.5625 7.5 32.5625 5 32.25 C5 28.25 5 28.25 6.6796875 26.328125 C7.40414062 25.72484375 8.12859375 25.1215625 8.875 24.5 C9.59429688 23.88640625 10.31359375 23.2728125 11.0546875 22.640625 C13 21.25 13 21.25 15 21.25 C16.25984998 19.17495298 16.98608195 17.69537763 17.0625 15.25 C15.28925034 11.91211829 12.3672982 10.62753108 9 9.25 C5.03272026 8.08751778 1.03956932 7.12557167 -3 6.25 C-3.38218767 4.59385343 -3.71395102 2.92542976 -4 1.25 C-3 0.25 -3 0.25 0 0 Z " fill="#514846" transform="translate(701,416.75)"/>
<path d="M0 0 C4.92293178 0.4842228 6.64569948 1.59028719 9.8125 5.375 C10.55776995 8.52106321 10.4980981 11.22124876 9.8125 14.375 C8.01856332 17.24529869 6.82986724 18.86631638 3.8125 20.375 C-0.36894011 20.76947548 -2.49696048 20.82535186 -6.0625 18.5 C-8.97460658 15.58789342 -9.14818305 14.7747223 -9.5625 10.5625 C-9.54261166 6.91630475 -9.25358692 6.45464321 -6.75 3.4375 C-5.904375 2.756875 -5.05875 2.07625 -4.1875 1.375 C-3.1875 0.375 -3.1875 0.375 0 0 Z " fill="#D6D6D6" transform="translate(467.1875,490.625)"/>
<path d="M0 0 C2.03125 1.0703125 2.03125 1.0703125 4.03125 3.0703125 C4.15625 5.6953125 4.15625 5.6953125 4.03125 8.0703125 C1.90625 8.8203125 1.90625 8.8203125 -0.96875 9.0703125 C-2.33 8.11125 -2.33 8.11125 -3.71875 7.1328125 C-7.76643081 4.56409199 -11.26151585 4.07506871 -15.96875 5.0703125 C-17.82511959 6.18704013 -17.82511959 6.18704013 -18.96875 8.0703125 C-19.33088568 10.58320925 -19.33088568 10.58320925 -19.15625 13.2578125 C-19.12917969 14.15886719 -19.10210937 15.05992187 -19.07421875 15.98828125 C-19.03941406 16.67535156 -19.00460937 17.36242187 -18.96875 18.0703125 C-21.28125 18.7578125 -21.28125 18.7578125 -23.96875 19.0703125 C-25.99991577 17.54200816 -26.8479285 16.45014056 -27.62109375 14.01953125 C-28.16278726 9.72308549 -28.2697955 7.65090025 -26.21875 3.6953125 C-18.68485739 -5.09422888 -10.28756796 -4.3950053 0 0 Z " fill="#514846" transform="translate(411.96875,308.9296875)"/>
<path d="M0 0 C4.41212166 2.12287603 8.25507574 4.61734264 10.52734375 9.05859375 C11.23828106 13.1653022 10.9550028 16.16439755 9.15234375 19.93359375 C7.52734375 22.05859375 7.52734375 22.05859375 5.52734375 24.05859375 C3.40234375 23.68359375 3.40234375 23.68359375 1.52734375 23.05859375 C1.52734375 21.40859375 1.52734375 19.75859375 1.52734375 18.05859375 C2.18734375 18.05859375 2.84734375 18.05859375 3.52734375 18.05859375 C4.19658137 14.77115828 4.19658137 14.77115828 3.52734375 11.05859375 C-1.10718857 6.69992645 -6.53665664 4.91619375 -12.80078125 4.9609375 C-13.99960937 4.96577148 -13.99960937 4.96577148 -15.22265625 4.97070312 C-16.04765625 4.97908203 -16.87265625 4.98746094 -17.72265625 4.99609375 C-18.563125 5.00060547 -19.40359375 5.00511719 -20.26953125 5.00976562 C-22.33727026 5.02151414 -24.40497249 5.03944853 -26.47265625 5.05859375 C-26.47265625 3.40859375 -26.47265625 1.75859375 -26.47265625 0.05859375 C-19.71694649 -3.31926113 -7.0885307 -1.92163768 0 0 Z " fill="#504744" transform="translate(622.47265625,286.94140625)"/>
<path d="M0 0 C7.95943444 0.59141309 12.35991268 3.64897518 17.8984375 9.1875 C17.69895224 14.47385939 16.63905362 17.44688388 12.8984375 21.1875 C9.14614255 24.05109351 6.58170446 24.51423956 1.8984375 24.1875 C1.5859375 21.9375 1.5859375 21.9375 1.8984375 19.1875 C4.39893467 16.82216484 7.03609055 15.0957313 9.8984375 13.1875 C9.8984375 12.5275 9.8984375 11.8675 9.8984375 11.1875 C5.31348566 8.50362575 2.17408341 7.98061193 -3.1015625 8.1875 C-4.1015625 7.1875 -4.1015625 7.1875 -4.2890625 4.75 C-4.05163891 1.50521094 -3.3436376 0.29831711 0 0 Z " fill="#504745" transform="translate(660.1015625,322.8125)"/>
<path d="M0 0 C3.22267998 1.96163129 5.53894832 3.77684331 7.875 6.75 C7.6875 9.5625 7.6875 9.5625 6.875 11.75 C3.60706785 11.37652204 2.05511195 10.90167322 -0.5 8.75 C-3.7132482 6.3018109 -6.15183563 6.06162074 -10.125 5.75 C-13.43942207 10.21726453 -13.78509167 14.37007164 -14.125 19.75 C-19 18.875 -19 18.875 -20.125 17.75 C-20.91911674 10.95444364 -20.34334608 6.18944627 -16.125 0.75 C-10.53621104 -3.22424993 -6.14836525 -2.4593461 0 0 Z " fill="#514846" transform="translate(453.125,286.25)"/>
<path d="M0 0 C2.4375 1.5 2.4375 1.5 4 3 C3.3125 4.9375 3.3125 4.9375 2 7 C-0.56551904 7.76272188 -3.03224539 8.00374946 -5.6875 8.3125 C-8.1746842 8.7768844 -8.1746842 8.7768844 -9.3125 11.0625 C-9.6528125 12.0215625 -9.6528125 12.0215625 -10 13 C-9.48308594 13.45890625 -8.96617187 13.9178125 -8.43359375 14.390625 C-7.77488281 15.00421875 -7.11617188 15.6178125 -6.4375 16.25 C-5.77621094 16.85328125 -5.11492187 17.4565625 -4.43359375 18.078125 C-3 20 -3 20 -3.28515625 22.234375 C-3.52105469 22.81703125 -3.75695312 23.3996875 -4 24 C-7.48371543 23.93032569 -10.07858492 23.81133452 -12.765625 21.4453125 C-17.83121513 15.51906386 -17.83121513 15.51906386 -18.3125 11.1875 C-17.91551751 7.13827859 -16.93832619 5.78764279 -14 3 C-9.22318031 0.38626847 -5.43229445 -0.61497673 0 0 Z " fill="#514846" transform="translate(316,397)"/>
<path d="M0 0 C4.48228843 2.65801842 8.10661956 5.65992934 11 10 C10.625 13.6875 10.625 13.6875 10 17 C4.31028145 19.43845081 0.19527301 20.52502314 -6 20 C-6.99 19.34 -7.98 18.68 -9 18 C-8.67 16.35 -8.34 14.7 -8 13 C-3.38 13 1.24 13 6 13 C3.86911399 8.73822797 3.2232788 7.83620817 -1 6 C-3.72238421 5.76261214 -6.257642 5.86055807 -9 6 C-9.33 4.35 -9.66 2.7 -10 1 C-6.68094882 -0.65952559 -3.55801976 -0.75509757 0 0 Z " fill="#514846" transform="translate(712,473)"/>
<path d="M0 0 C1.11568359 0.16048828 1.11568359 0.16048828 2.25390625 0.32421875 C2.74510661 4.39329824 2.51072113 5.96337759 0.09375 9.359375 C-0.856205 10.38497395 -1.82464541 11.39368634 -2.80859375 12.38671875 C-3.31374512 12.91257568 -3.81889648 13.43843262 -4.33935547 13.98022461 C-10.20159437 19.97642007 -16.25625576 24.78631834 -24.74609375 26.32421875 C-26.953125 26.01953125 -26.953125 26.01953125 -28.74609375 25.32421875 C-29.07609375 24.66421875 -29.40609375 24.00421875 -29.74609375 23.32421875 C-28.87726563 22.87691406 -28.0084375 22.42960937 -27.11328125 21.96875 C-17.08047301 16.70545351 -11.03569013 12.24901315 -4.7734375 2.5546875 C-2.74609375 0.32421875 -2.74609375 0.32421875 0 0 Z " fill="#504744" transform="translate(464.74609375,394.67578125)"/>
<path d="M0 0 C2.52440608 1.41692471 4.58181148 2.9517307 6.4375 5.1875 C6.625 8.375 6.625 8.375 6.4375 11.1875 C4.4575 12.1775 4.4575 12.1775 2.4375 13.1875 C2.045625 12.23875 1.65375 11.29 1.25 10.3125 C-0.85866661 6.67686791 -1.6527885 6.35268238 -5.5625 5.1875 C-8.54954901 4.83676528 -8.54954901 4.83676528 -11.625 4.875 C-12.64722656 4.85824219 -13.66945313 4.84148437 -14.72265625 4.82421875 C-17.9253651 5.23391878 -19.12301176 6.16605855 -21.5625 8.1875 C-24.3125 8.375 -24.3125 8.375 -26.5625 8.1875 C-26.23710004 5.29775409 -26.05227386 3.65866013 -23.91796875 1.60546875 C-16.29424836 -2.72150769 -8.12127561 -3.85163439 0 0 Z " fill="#534A48" transform="translate(570.5625,268.8125)"/>
<path d="M0 0 C2 2 2 2 2 6 C0.35 6.33 -1.3 6.66 -3 7 C-3.11635105 9.29781554 -3.11635105 9.29781554 -2 12 C0.49775783 14.25484692 3.19801963 16.14265083 6 18 C5.67 19.32 5.34 20.64 5 22 C0.14598705 22.37987927 -2.16372315 21.78645806 -5.875 18.625 C-9.22103502 15.45388418 -10.64016095 13.39626077 -10.8125 8.75 C-10.49728719 5.59787186 -10.06544778 4.10572334 -8.375 1.375 C-5.34745776 -0.37778761 -3.44502033 -0.44935048 0 0 Z " fill="#504745" transform="translate(303,498)"/>
<path d="M0 0 C0.763125 -0.01224609 1.52625 -0.02449219 2.3125 -0.03710938 C6.19506322 -0.04732665 8.07178923 -0.01464051 11.375 2.1875 C11.045 3.8375 10.715 5.4875 10.375 7.1875 C9.76503174 7.21255615 9.15506348 7.2376123 8.52661133 7.26342773 C5.74672102 7.3799058 2.9671266 7.50239632 0.1875 7.625 C-0.77220703 7.66431641 -1.73191406 7.70363281 -2.72070312 7.74414062 C-3.65205078 7.78603516 -4.58339844 7.82792969 -5.54296875 7.87109375 C-6.39656982 7.90775146 -7.2501709 7.94440918 -8.12963867 7.98217773 C-10.68954594 8.19281094 -13.11833243 8.63591536 -15.625 9.1875 C-16.3125 6.875 -16.3125 6.875 -16.625 4.1875 C-15.18423962 1.94631718 -14.10661803 1.31876807 -11.546875 0.62109375 C-7.68358493 0.04779803 -3.90032324 0.00332792 0 0 Z " fill="#504745" transform="translate(502.625,579.8125)"/>
<path d="M0 0 C0.59732819 2.76264289 1 5.16032769 1 8 C1.94978897 10.15028304 1.94978897 10.15028304 3 12 C1 14 1 14 -2.3125 14.375 C-6.5789884 13.94111982 -8.16171968 13.1823143 -11 10 C-11.6875 7.5625 -11.6875 7.5625 -11 5 C-7.52220203 1.36044399 -5.15214209 -0.75766795 0 0 Z " fill="#544C4A" transform="translate(307,541)"/>
<path d="M0 0 C0.70511719 0.23976563 1.41023437 0.47953125 2.13671875 0.7265625 C2.46671875 2.3765625 2.79671875 4.0265625 3.13671875 5.7265625 C-0.65046063 9.0628872 -4.08828823 11.89784177 -8.86328125 13.7265625 C-11.73828125 13.4140625 -11.73828125 13.4140625 -13.86328125 12.7265625 C-14.1875 10.5 -14.1875 10.5 -13.86328125 7.7265625 C-11.6328125 5.453125 -11.6328125 5.453125 -8.67578125 3.3515625 C-7.71285156 2.64257812 -6.74992188 1.93359375 -5.7578125 1.203125 C-2.86328125 -0.2734375 -2.86328125 -0.2734375 0 0 Z " fill="#4F4644" transform="translate(540.86328125,513.2734375)"/>
<path d="M0 0 C0.639375 0.2475 1.27875 0.495 1.9375 0.75 C2.2675 1.74 2.5975 2.73 2.9375 3.75 C6.5675 4.41 10.1975 5.07 13.9375 5.75 C14.2675 7.4 14.5975 9.05 14.9375 10.75 C12.9375 12.75 12.9375 12.75 10.80078125 12.9375 C5.02220216 12.51273461 1.35612873 11.46618805 -2.85546875 7.3828125 C-4.0625 5.75 -4.0625 5.75 -4.5 2.875 C-4.2834375 1.823125 -4.2834375 1.823125 -4.0625 0.75 C-2.0625 -0.25 -2.0625 -0.25 0 0 Z " fill="#504745" transform="translate(448.0625,517.25)"/>
<path d="M0 0 C0.66 0 1.32 0 2 0 C6.14352972 6.25968955 7.59672183 10.48130488 7 18 C0.64529559 17.52039967 0.64529559 17.52039967 -1.9375 15.4375 C-3.45588716 11.95414122 -3.55716697 8.70222786 -3 5 C-1.625 2 -1.625 2 0 0 Z " fill="#D8D8D8" transform="translate(422,399)"/>
<path d="M0 0 C3.1875 -0.3125 3.1875 -0.3125 6 0 C6 2.64 6 5.28 6 8 C3.69 8.66 1.38 9.32 -1 10 C-1 10.66 -1 11.32 -1 12 C0.32 12 1.64 12 3 12 C2.67 13.65 2.34 15.3 2 17 C-0.6635969 16.64005447 -2.58183452 16.28838998 -4.8125 14.75 C-6.45364719 12.3314673 -6.42967368 10.86449123 -6 8 C-4.6875 6.5 -4.6875 6.5 -3 5 C-2.566875 4.113125 -2.13375 3.22625 -1.6875 2.3125 C-1.130625 1.549375 -0.57375 0.78625 0 0 Z " fill="#524947" transform="translate(545,373)"/>
<path d="M0 0 C0.51137226 6.90352555 -1.13035626 11.74827614 -4 18 C-8.875 17.125 -8.875 17.125 -10 16 C-10.55910632 10.2971155 -9.61852911 7.42264669 -6 3 C-2.6 0 -2.6 0 0 0 Z " fill="#D4D4D4" transform="translate(436,366)"/>
<path d="M0 0 C0.99 0 1.98 0 3 0 C3.33 0.99 3.66 1.98 4 3 C6.64 3.33 9.28 3.66 12 4 C12.33 5.65 12.66 7.3 13 9 C9.86128812 10.56935594 7.46144178 10.35201103 4 10 C1 7.8125 1 7.8125 -1 5 C-0.8125 2.1875 -0.8125 2.1875 0 0 Z " fill="#514846" transform="translate(321,574)"/>
<path d="M0 0 C0.042721 1.66611905 0.04063832 3.33382885 0 5 C-1 6 -1 6 -3.5 6.125 C-6 6 -6 6 -7 5 C-7.04063832 3.33382885 -7.042721 1.66611905 -7 0 C-4.3333581 -1.33332095 -2.83319697 -0.67102033 0 0 Z " fill="#564D4B" transform="translate(471,498)"/>
<path d="M0 0 C1.2065625 0.0309375 1.2065625 0.0309375 2.4375 0.0625 C3.0625 2.4375 3.0625 2.4375 3.4375 5.0625 C2.7775 5.7225 2.1175 6.3825 1.4375 7.0625 C-1.1875 6.6875 -1.1875 6.6875 -3.5625 6.0625 C-3.605221 4.39638095 -3.60313832 2.72867115 -3.5625 1.0625 C-2.5625 0.0625 -2.5625 0.0625 0 0 Z " fill="#534A48" transform="translate(517.5625,495.9375)"/>
<path d="M0 0 C1.66611905 -0.042721 3.33382885 -0.04063832 5 0 C6 1 6 1 6.0625 3.5625 C6.041875 4.366875 6.02125 5.17125 6 6 C3.625 6.625 3.625 6.625 1 7 C0.34 6.34 -0.32 5.68 -1 5 C-0.625 2.375 -0.625 2.375 0 0 Z " fill="#544B49" transform="translate(578,378)"/>
<path d="M0 0 C0 0.99 0 1.98 0 3 C-1.2065625 4.051875 -1.2065625 4.051875 -2.4375 5.125 C-5.83835575 8.94059426 -5.88106669 12.03723738 -6 17 C-6.66 17 -7.32 17 -8 17 C-8.49303103 12.97357995 -8.86992855 9.4579358 -6.734375 5.87890625 C-4.65736686 3.45404965 -2.87342284 1.43671142 0 0 Z " fill="#5B5351" transform="translate(289,534)"/>
<path d="M0 0 C0.66 0.33 1.32 0.66 2 1 C1.34 1.66 0.68 2.32 0 3 C0.66 3.66 1.32 4.32 2 5 C0.71086513 5.67154933 -0.58140204 6.33708859 -1.875 7 C-2.59429688 7.37125 -3.31359375 7.7425 -4.0546875 8.125 C-6 9 -6 9 -8 9 C-8.33 9.99 -8.66 10.98 -9 12 C-9.66 11.67 -10.32 11.34 -11 11 C-9.73347137 9.53792657 -8.46161082 8.08047074 -7.1875 6.625 C-6.47980469 5.81289063 -5.77210938 5.00078125 -5.04296875 4.1640625 C-3 2 -3 2 0 0 Z " fill="#CECDCD" transform="translate(551,264)"/>
<path d="M0 0 C0.598125 0.20625 1.19625 0.4125 1.8125 0.625 C1.4825 1.945 1.1525 3.265 0.8125 4.625 C-1.4975 4.955 -3.8075 5.285 -6.1875 5.625 C-5.875 3.75 -5.875 3.75 -5.1875 1.625 C-2.1875 -0.375 -2.1875 -0.375 0 0 Z " fill="#534A48" transform="translate(613.1875,394.375)"/>
<path d="M0 0 C1.65 0.33 3.3 0.66 5 1 C4.67 2.65 4.34 4.3 4 6 C2.35 5.67 0.7 5.34 -1 5 C-0.67 3.35 -0.34 1.7 0 0 Z " fill="#4F4644" transform="translate(595,363)"/>
<path d="M0 0 C0.66 0 1.32 0 2 0 C0.63629701 2.99220268 -0.94908083 5.29026529 -3.125 7.75 C-3.93324219 8.67039062 -3.93324219 8.67039062 -4.7578125 9.609375 C-5.16773438 10.06828125 -5.57765625 10.5271875 -6 11 C-6.66 10.67 -7.32 10.34 -8 10 C-7.04367001 8.70684939 -6.08486149 7.41553147 -5.125 6.125 C-4.59132813 5.40570313 -4.05765625 4.68640625 -3.5078125 3.9453125 C-2 2 -2 2 0 0 Z " fill="#584F4D" transform="translate(328,333)"/>
<path d="M0 0 C0.66 0.66 1.32 1.32 2 2 C-0.64 4.64 -3.28 7.28 -6 10 C-6 6.41087588 -5.33563446 5.89142971 -3 3.3125 C-2.443125 2.68988281 -1.88625 2.06726563 -1.3125 1.42578125 C-0.879375 0.95527344 -0.44625 0.48476563 0 0 Z " fill="#574F4D" transform="translate(466,603)"/>
<path d="M0 0 C2.375 -0.125 2.375 -0.125 5 0 C5.66 0.66 6.32 1.32 7 2 C7.66 1.67 8.32 1.34 9 1 C9 2.65 9 4.3 9 6 C8.01 6.33 7.02 6.66 6 7 C4 4 4 4 4 1 C2.68 0.67 1.36 0.34 0 0 Z " fill="#746E6D" transform="translate(417,376)"/>
<path d="M0 0 C-0.33 1.32 -0.66 2.64 -1 4 C-2.65 4 -4.3 4 -6 4 C-6 3.01 -6 2.02 -6 1 C-4 0 -4 0 0 0 Z " fill="#615957" transform="translate(576,387)"/>
<path d="M0 0 C1.98 0 3.96 0 6 0 C6 1.32 6 2.64 6 4 C5.34 4 4.68 4 4 4 C4 3.01 4 2.02 4 1 C3.38125 1.495 2.7625 1.99 2.125 2.5 C0 4 0 4 -2 4 C-1.34 2.68 -0.68 1.36 0 0 Z " fill="#645C5A" transform="translate(545,373)"/>
<path d="M0 0 C1.65 0 3.3 0 5 0 C5.33 1.65 5.66 3.3 6 5 C5.34 5 4.68 5 4 5 C4 4.01 4 3.02 4 2 C2.68 2 1.36 2 0 2 C0 1.34 0 0.68 0 0 Z " fill="#675F5D" transform="translate(302,541)"/>
<path d="M0 0 C1.0326802 2.78823655 1.04509293 3.8677274 0.0625 6.75 C-0.288125 7.4925 -0.63875 8.235 -1 9 C-1.33 9 -1.66 9 -2 9 C-2 6.36 -2 3.72 -2 1 C-1.34 0.67 -0.68 0.34 0 0 Z " fill="#433835" transform="translate(438,365)"/>
</svg>
