<?xml version="1.0" encoding="UTF-8"?>
<!-- Generator: visioncortex VTracer 0.6.4 -->
<svg version="1.1" xmlns="http://www.w3.org/2000/svg" width="1000" height="1000">
<path d="M0 0 C0.74745483 -0.00385712 1.49490967 -0.00771423 2.26501465 -0.01168823 C24.43888518 -0.06842007 49.25113955 2.17019769 66.15234375 18.08984375 C73.31521819 26.42455859 74.74530726 35.69723226 74.23730469 46.33007812 C72.32988736 67.96168241 54.50905262 87.41061191 40.0625 102.3125 C39.59424805 102.79589844 39.12599609 103.27929688 38.64355469 103.77734375 C33.01645042 109.56171542 27.26988939 115.15152813 21.0625 120.3125 C20.53092285 120.75787109 19.9993457 121.20324219 19.45166016 121.66210938 C2.85539736 135.52745511 -14.69989785 147.71580548 -32.9375 159.3125 C-33.61458008 159.74626953 -34.29166016 160.18003906 -34.98925781 160.62695312 C-47.40690159 168.57777324 -60.15286713 175.97088875 -72.9375 183.3125 C-73.92363281 183.87984863 -74.90976562 184.44719727 -75.92578125 185.03173828 C-93.38153992 195.03989926 -111.19717978 204.28442212 -129.13275146 213.39385986 C-131.68208238 214.69150197 -134.22546445 216.00066801 -136.76953125 217.30859375 C-151.62657698 224.89737487 -166.81926153 231.74378066 -182.04052734 238.5625 C-185.44664014 240.08928158 -188.8432401 241.63623667 -192.23828125 243.1875 C-266.6395417 276.90648111 -350.31257872 304.47947478 -533.1796875 308.5 C-549.24808749 301.5810289 -563.09820209 293.13258027 -570.9296875 276.8671875 C-576.47737304 262.80444972 -575.76683859 245.20686101 -569.9375 231.3125 C-562.59515524 214.9510731 -551.37358826 201.10055302 -538.9375 188.3125 C-538.38803711 187.74257324 -537.83857422 187.17264648 -537.27246094 186.58544922 C-530.76321655 179.85632249 -524.1864578 173.44983511 -516.828125 167.640625 C-514.02936807 165.38649104 -511.33537625 163.04869432 -508.64306641 160.67016602 C-501.05391764 153.97460673 -493.19520019 147.78937869 -485.01757812 141.83056641 C-482.91574845 140.29662546 -480.82477807 138.74868418 -478.734375 137.19921875 C-466.79159051 128.40190347 -454.42126326 120.31646387 -441.9375 112.3125 C-440.99793457 111.70728516 -440.05836914 111.10207031 -439.09033203 110.47851562 C-426.18795211 102.16888887 -413.17021701 94.08571373 -399.9375 86.3125 C-398.95297852 85.73387207 -397.96845703 85.15524414 -396.95410156 84.55908203 C-381.76583072 75.65863226 -366.40989138 67.11804032 -350.86035156 58.86572266 C-348.2227863 57.46410302 -345.5909562 56.05242943 -342.9609375 54.63671875 C-321.03361742 42.88300988 -298.55366947 32.83534251 -275.43554688 23.70019531 C-272.49608596 22.53409426 -269.56610331 21.34902039 -266.640625 20.1484375 C-237.12039444 8.14692594 -237.12039444 8.14692594 -222.25 8.1875 C-220.82107422 8.18363281 -220.82107422 8.18363281 -219.36328125 8.1796875 C-216.9375 8.3125 -216.9375 8.3125 -214.9375 9.3125 C-215.2675 10.9625 -215.5975 12.6125 -215.9375 14.3125 C-217.37416016 14.44205078 -217.37416016 14.44205078 -218.83984375 14.57421875 C-229.33121331 15.63322554 -238.9550392 17.96226588 -248.9375 21.3125 C-249.69047363 21.56177246 -250.44344727 21.81104492 -251.21923828 22.06787109 C-288.85468941 34.69653402 -325.39035395 51.86396979 -359.9375 71.3125 C-361.81245722 72.36075361 -363.68745804 73.40892922 -365.5625 74.45703125 C-371.37055979 77.71364209 -377.15869763 81.0042823 -382.9375 84.3125 C-383.91477051 84.87195313 -384.89204102 85.43140625 -385.89892578 86.0078125 C-427.29256041 109.77371382 -468.49436054 135.59736215 -504.8359375 166.68359375 C-507.761986 169.1797705 -510.75106752 171.59176634 -513.75 174 C-517.76983613 177.26830155 -521.44866677 180.70676244 -525.05078125 184.42578125 C-526.89672756 186.27172756 -528.81463739 187.94615737 -530.8125 189.625 C-549.33302122 205.73605535 -565.16964947 227.94730399 -567.75 252.8125 C-568.40209537 264.81956038 -565.42512052 275.16845193 -558.03515625 284.7890625 C-549.58808664 293.94398711 -537.78875921 299.8688095 -525.9375 303.3125 C-524.76703125 303.66054688 -523.5965625 304.00859375 -522.390625 304.3671875 C-446.34498422 325.31389095 -352.14261695 293.54591524 -160.0859375 220.81103516 C-157.2409508 219.45693091 -154.38888744 218.12011325 -151.53125 216.79296875 C-142.32030011 212.50579381 -133.29539716 207.94597119 -124.33203125 203.1640625 C-120.28787622 201.012409 -116.21839977 198.91550847 -112.13671875 196.8359375 C-97.38682937 189.31527975 -82.94153495 181.46133994 -68.72265625 172.96386719 C-66.0686028 171.39023311 -63.39848569 169.84970779 -60.71875 168.3203125 C-37.97740753 155.2675893 -15.40798078 140.73751859 5.0625 124.3125 C5.77277344 123.74595703 6.48304688 123.17941406 7.21484375 122.59570312 C14.63731056 116.65138569 22.00848389 110.73651028 28.57421875 103.8359375 C30.0625 102.3125 30.0625 102.3125 32.625 100.3125 C36.22493755 97.35870509 39.06477037 93.86320889 42.0625 90.3125 C42.83980469 89.42304688 43.61710938 88.53359375 44.41796875 87.6171875 C57.23940729 72.70853804 67.58233261 57.06933107 67.328125 36.75390625 C66.7859245 29.72922032 63.98314452 25.93846755 59 21.125 C49.09668217 12.93633429 37.3934471 10.60494341 25.0625 8.3125 C24.14533203 8.135979 23.22816406 7.95945801 22.28320312 7.77758789 C18.64384213 7.25204342 15.06376859 7.11457363 11.39453125 7.07421875 C10.65508774 7.0644249 9.91564423 7.05463104 9.15379333 7.04454041 C-12.15697833 6.82218278 -32.86707228 8.14405966 -53.9375 11.3125 C-54.64863953 11.41904907 -55.35977905 11.52559814 -56.09246826 11.63537598 C-90.2095954 16.80010335 -123.13583676 25.72363371 -155.9375 36.3125 C-156.75021362 36.57460266 -157.56292725 36.83670532 -158.40026855 37.10675049 C-193.83956983 48.57077631 -228.39292778 62.08821928 -261.9375 78.3125 C-262.94232422 78.79638184 -263.94714844 79.28026367 -264.98242188 79.77880859 C-279.03831403 86.58055246 -292.69572408 93.95317203 -306.21728516 101.75830078 C-308.75897175 103.21049759 -311.31686802 104.62574747 -313.88671875 106.02734375 C-336.3463785 118.37221599 -358.21065635 132.8668165 -378.19482422 148.92285156 C-379.97830606 150.34503966 -381.783686 151.7341498 -383.59765625 153.1171875 C-392.70038649 160.08748141 -401.13452108 167.66914995 -409.3515625 175.66015625 C-410.03992188 176.30855469 -410.72828125 176.95695313 -411.4375 177.625 C-412.0046875 178.17800781 -412.571875 178.73101563 -413.15625 179.30078125 C-414.9375 180.3125 -414.9375 180.3125 -417.65625 179.98046875 C-418.4090625 179.76003906 -419.161875 179.53960938 -419.9375 179.3125 C-405.4205365 135.76160949 -312.32002157 96.40436514 -274.9375 77.3125 C-274.19709473 76.93399902 -273.45668945 76.55549805 -272.69384766 76.16552734 C-255.15107878 67.2274022 -237.35602878 58.99732088 -219.125 51.5625 C-218.17829437 51.17576111 -217.23158875 50.78902222 -216.25619507 50.39056396 C-183.82241891 37.18550684 -150.66005413 26.68932328 -116.9375 17.3125 C-115.94547577 17.03469696 -115.94547577 17.03469696 -114.93341064 16.75128174 C-77.64961765 6.32337793 -38.72484638 0.12352184 0 0 Z " fill="#111111" transform="translate(748.9375,352.6875)"/>
</svg>
