<?xml version="1.0" standalone="no"?>
<!DOCTYPE svg PUBLIC "-//W3C//DTD SVG 20010904//EN"
 "http://www.w3.org/TR/2001/REC-SVG-20010904/DTD/svg10.dtd">
<svg version="1.0" xmlns="http://www.w3.org/2000/svg"
 width="1000.000000pt" height="1000.000000pt" viewBox="0 0 1000.000000 1000.000000"
 preserveAspectRatio="xMidYMid meet">
<metadata>
Created by potrace 1.16, written by Peter Selinger 2001-2019
</metadata>
<g transform="translate(0.000000,1000.000000) scale(0.100000,-0.100000)"
fill="#000000" stroke="none">
<path d="M7260 6463 c-334 -26 -783 -116 -1174 -234 -790 -240 -1473 -554
-2101 -966 -327 -216 -713 -538 -703 -589 7 -38 37 -22 149 81 437 405 1103
809 1839 1117 765 320 1546 515 2140 535 581 19 848 -154 735 -478 -46 -131
-140 -266 -309 -437 -253 -259 -565 -482 -1097 -787 -535 -307 -1329 -680
-1789 -840 -36 -13 -137 -48 -225 -79 -633 -224 -1327 -378 -1827 -406 -459
-26 -775 45 -955 213 -43 40 -73 80 -95 125 -32 64 -33 71 -33 192 0 113 3
132 29 205 131 355 745 886 1631 1410 445 264 808 452 1115 580 385 160 550
214 677 220 88 4 103 8 103 30 0 68 -218 36 -505 -72 -458 -173 -875 -380
-1425 -706 -852 -506 -1434 -996 -1618 -1362 -127 -255 -98 -505 77 -667 137
-127 326 -196 616 -225 287 -30 718 9 1150 102 388 84 707 174 1110 313 526
182 928 355 1490 641 632 323 1076 599 1410 877 203 169 383 370 469 523 92
162 112 311 57 426 -63 134 -221 218 -476 255 -65 9 -362 11 -465 3z"/>
</g>
</svg>
