<?xml version="1.0" encoding="UTF-8"?>
<!-- Generator: visioncortex VTracer 0.6.4 -->
<svg version="1.1" xmlns="http://www.w3.org/2000/svg" width="1920" height="1080">
<path d="M0 0 C633.6 0 1267.2 0 1920 0 C1920 356.4 1920 712.8 1920 1080 C1286.4 1080 652.8 1080 0 1080 C0 723.6 0 367.2 0 0 Z " fill="#DFDFDF" transform="translate(0,0)"/>
<path d="M0 0 C6.67431739 6.50170574 10.05941879 14.32001269 10.1875 23.625 C9.61903606 50.94393941 -12.19348259 74.11995281 -30.734375 92.17578125 C-34.23200578 95.51038687 -37.80733248 98.6972314 -41.5 101.8125 C-42.39460938 102.59625 -43.28921875 103.38 -44.2109375 104.1875 C-74.89352656 130.92099266 -110.96882023 151.57962541 -146.24902344 171.53271484 C-148.290503 172.69339119 -150.32315379 173.86745364 -152.3515625 175.05078125 C-158.9492032 178.8927112 -165.63743487 182.45080844 -172.48535156 185.82006836 C-176.89966145 187.99496733 -181.24112206 190.27178028 -185.5625 192.625 C-194.7262862 197.58126504 -204.16111856 201.97724075 -213.57763672 206.42773438 C-216.36966112 207.75073875 -219.15649189 209.0839792 -221.94140625 210.421875 C-274.3890857 235.60142402 -329.36771628 257.73739549 -385.56787109 272.99511719 C-389.12371363 273.98637121 -392.64155288 275.07924024 -396.1628418 276.18579102 C-406.94541936 279.56350556 -417.87495262 282.00591811 -428.91796875 284.375 C-433.7361457 285.41137566 -438.51601642 286.54619888 -443.29296875 287.75634766 C-457.85237454 291.42223938 -472.66468983 293.58868602 -487.5 295.8125 C-488.66418457 295.99506348 -489.82836914 296.17762695 -491.02783203 296.36572266 C-506.18650615 298.67178307 -521.25667173 299.02342035 -536.55859375 299.05273438 C-539.59923911 299.06241796 -542.63920017 299.09354329 -545.6796875 299.125 C-573.50401423 299.275111 -604.5471413 295.60531373 -625.421875 275.12109375 C-634.96085093 264.52422387 -639.22075339 254.03145324 -638.9375 239.75 C-638.94458984 238.73873047 -638.95167969 237.72746094 -638.95898438 236.68554688 C-638.73847216 210.34281796 -619.07707755 187.54521722 -601.5 169.8125 C-600.892771 169.19713379 -600.28554199 168.58176758 -599.65991211 167.94775391 C-596.74716282 165.01219742 -593.83531416 162.12344527 -590.6875 159.4375 C-587.64416912 156.81555339 -584.65647726 154.14340333 -581.6875 151.4375 C-576.43601708 146.7103709 -571.02989505 142.20903717 -565.5 137.8125 C-564.52498535 137.03664551 -564.52498535 137.03664551 -563.53027344 136.24511719 C-552.77818309 127.71929566 -541.8212551 119.56670779 -530.5 111.8125 C-529.90751465 111.40644531 -529.3150293 111.00039063 -528.70458984 110.58203125 C-517.21215812 102.74465499 -505.43627731 95.33124356 -493.70556641 87.85839844 C-490.59499723 85.87313038 -487.49008965 83.87930942 -484.38671875 81.8828125 C-482.46617872 80.65099039 -480.54560726 79.41921729 -478.625 78.1875 C-477.76511475 77.63223633 -476.90522949 77.07697266 -476.01928711 76.50488281 C-470.89349334 73.22620847 -465.68179323 70.21019198 -460.32177734 67.33105469 C-455.43045646 64.69876399 -450.59483381 61.96661025 -445.75 59.25 C-444.66291748 58.64212646 -443.57583496 58.03425293 -442.45581055 57.40795898 C-437.22598476 54.47990899 -432.00632123 51.53735522 -426.81640625 48.5390625 C-397.38778256 31.5779819 -366.8308023 17.68471729 -335.1875 5.375 C-334.55699738 5.12924225 -333.92649475 4.8834845 -333.27688599 4.63027954 C-296.47044637 -9.66814297 -296.47044637 -9.66814297 -279.5 -8.1875 C-278.84 -7.8575 -278.18 -7.5275 -277.5 -7.1875 C-277.83 -5.5375 -278.16 -3.8875 -278.5 -2.1875 C-279.42296875 -2.18492187 -280.3459375 -2.18234375 -281.296875 -2.1796875 C-293.11869582 -1.82923827 -303.36717901 0.95028811 -314.5 4.8125 C-315.48838867 5.1542627 -316.47677734 5.49602539 -317.49511719 5.84814453 C-331.42591146 10.72631913 -345.09337353 16.19942029 -358.6875 21.9375 C-359.6999025 22.36276978 -359.6999025 22.36276978 -360.73275757 22.79663086 C-370.22961272 26.79811559 -379.46666488 31.19556786 -388.64627075 35.8767395 C-391.76810601 37.45263853 -394.9169456 38.97206689 -398.0625 40.5 C-405.86149164 44.34975958 -413.39473708 48.65418817 -420.9440918 52.96801758 C-426.53402525 56.15707254 -432.15482255 59.23967417 -437.875 62.1875 C-448.43031093 67.66288116 -458.52691357 73.93625126 -468.68457031 80.10742188 C-471.68564075 81.92492759 -474.70019252 83.71821803 -477.71923828 85.50561523 C-486.4706479 90.69959004 -495.00225 96.21526478 -503.5 101.8125 C-505.03406494 102.82159424 -505.03406494 102.82159424 -506.59912109 103.85107422 C-535.24471967 122.71467473 -562.10771251 142.7249265 -587.5 165.8125 C-588.93085937 167.08673828 -588.93085937 167.08673828 -590.390625 168.38671875 C-608.2453714 184.36004682 -630.68914534 207.46053481 -632.5 232.8125 C-632.59152344 233.94945312 -632.68304687 235.08640625 -632.77734375 236.2578125 C-633.31297338 248.98228217 -630.19910508 259.97141097 -621.71484375 269.640625 C-617.96797759 273.31480063 -614.0120409 276.1468669 -609.5 278.8125 C-608.49453125 279.40933594 -607.4890625 280.00617188 -606.453125 280.62109375 C-599.68939419 284.31256655 -593.06919989 286.73497731 -585.625 288.625 C-584.47765381 288.91721436 -584.47765381 288.91721436 -583.30712891 289.21533203 C-569.41665423 292.47472603 -555.51285597 293.18932777 -541.3125 293.125 C-540.49117584 293.12350952 -539.66985168 293.12201904 -538.82363892 293.1204834 C-514.75960104 293.04267484 -491.17166214 290.03135914 -467.5 285.8125 C-466.4368457 285.62429688 -465.37369141 285.43609375 -464.27832031 285.2421875 C-449.44635998 282.58492378 -434.84996141 279.31554307 -420.26953125 275.52246094 C-417.67453493 274.8572415 -415.07474789 274.22208735 -412.46875 273.6015625 C-399.86106515 270.58569089 -387.5273586 266.8375322 -375.16625977 262.94165039 C-372.49179469 262.11795718 -369.81641987 261.31838347 -367.12866211 260.54077148 C-353.23131906 256.50060008 -339.65907782 251.69908552 -326.0625 246.75 C-323.85498625 245.95200757 -321.64730455 245.15447956 -319.43945312 244.35742188 C-300.60380776 237.5460945 -282.04909065 230.3473594 -263.75 222.1875 C-262.5738916 221.66317383 -261.3977832 221.13884766 -260.18603516 220.59863281 C-256.62241552 219.00681562 -253.06070173 217.41083255 -249.5 215.8125 C-248.49356445 215.36100586 -247.48712891 214.90951172 -246.45019531 214.44433594 C-211.99822555 198.94153367 -178.08527652 182.22948608 -145.31494141 163.41699219 C-142.464095 161.79203446 -139.59997373 160.19331286 -136.73046875 158.6015625 C-123.32814699 151.15106332 -110.33262016 143.20474928 -97.5 134.8125 C-96.79407715 134.35246582 -96.0881543 133.89243164 -95.36083984 133.41845703 C-81.66587092 124.4725226 -68.11707129 115.23716708 -55.5 104.8125 C-54.69175781 104.17699219 -53.88351562 103.54148437 -53.05078125 102.88671875 C-37.53560779 90.57198466 -23.43107592 76.75196525 -11.75 60.75 C-11.20633789 60.00572754 -10.66267578 59.26145508 -10.10253906 58.49462891 C-0.48358552 45.05473105 4.84282339 32.57300305 2.5 15.8125 C-0.09386021 7.63421134 -6.11741918 2.7451827 -13.5 -1.1875 C-30.23715235 -9.04240398 -48.17002024 -9.45259451 -66.3125 -9.4375 C-67.09924103 -9.43690582 -67.88598206 -9.43631165 -68.69656372 -9.43569946 C-81.93723124 -9.39758168 -95.21416504 -9.10087613 -108.3125 -7 C-109.11977539 -6.87326904 -109.92705078 -6.74653809 -110.75878906 -6.6159668 C-113.67431466 -6.15029994 -116.58703285 -5.6689085 -119.5 -5.1875 C-120.72187012 -4.99027344 -121.94374023 -4.79304688 -123.20263672 -4.58984375 C-163.03946277 1.86180673 -201.33846356 12.70273431 -239.5 25.8125 C-241.14742187 26.37227539 -241.14742187 26.37227539 -242.828125 26.94335938 C-271.45709041 36.70476131 -299.43117588 48.31206555 -326.5 61.8125 C-327.87981181 62.49039104 -329.25999651 63.1675238 -330.640625 63.84375 C-334.61194455 65.79808865 -338.55789311 67.80001565 -342.5 69.8125 C-343.33402344 70.2357959 -344.16804688 70.6590918 -345.02734375 71.09521484 C-373.53878901 85.6014864 -401.85074001 101.62018829 -427.5 120.8125 C-428.80192992 121.77624895 -430.10402103 122.73978017 -431.40625 123.703125 C-435.45870867 126.71188624 -439.48493206 129.75406913 -443.5 132.8125 C-444.11939453 133.28333008 -444.73878906 133.75416016 -445.37695312 134.23925781 C-452.84290152 139.93653501 -459.94556859 145.87732071 -466.80078125 152.296875 C-469.76765112 155.0619462 -472.80474487 157.7305601 -475.87890625 160.375 C-477.544786 161.79964696 -477.544786 161.79964696 -479.046875 163.51953125 C-479.52640625 163.94621094 -480.0059375 164.37289062 -480.5 164.8125 C-483.1875 164.5 -483.1875 164.5 -485.5 163.8125 C-484.33169053 155.59724449 -473.53637971 148.94761468 -467.5 143.8125 C-466.613125 143.03648437 -465.72625 142.26046875 -464.8125 141.4609375 C-455.11887153 133.03881301 -444.8444019 125.41119222 -434.5 117.8125 C-433.84322266 117.32861816 -433.18644531 116.84473633 -432.50976562 116.34619141 C-409.90563656 99.7474296 -385.55869563 84.55385053 -360.546875 71.86035156 C-357.47485794 70.28770161 -354.43038437 68.66390345 -351.38208008 67.04589844 C-332.01928707 56.78147166 -312.38222499 47.32044328 -292.17675781 38.83300781 C-289.76402298 37.81839699 -287.35460694 36.79618642 -284.9453125 35.7734375 C-267.31859397 28.326636 -249.38633913 21.9585943 -231.1875 16.0625 C-230.26679718 15.76391083 -229.34609436 15.46532166 -228.39749146 15.15768433 C-189.59273904 2.60248416 -151.03080797 -7.91202273 -110.5 -13.1875 C-109.36852539 -13.33703125 -108.23705078 -13.4865625 -107.07128906 -13.640625 C-73.01138861 -18.00993487 -28.89177221 -22.47746984 0 0 Z " fill="#0A0A0A" transform="translate(1269.5,394.1875)"/>
</svg>
